<?xml version="1.0" encoding="UTF-8"?>
<svg version="1.1" xmlns="http://www.w3.org/2000/svg" width="512" height="512">
<path d="M0 0 C0.79862251 0.00291284 1.59724501 0.00582568 2.4200682 0.00882679 C3.68316752 0.00754515 3.68316752 0.00754515 4.971784 0.00623763 C7.81552334 0.00458024 10.65920471 0.0101084 13.50293869 0.01555592 C15.53261702 0.01583776 17.56229545 0.01568012 19.59197372 0.01511341 C25.12067266 0.01482532 30.6493501 0.02072391 36.17804402 0.02768737 C41.94897441 0.03391899 47.71990523 0.03452455 53.49083847 0.03571278 C64.42726064 0.03882666 75.36367288 0.04704082 86.30009067 0.05706227 C98.74727595 0.06822164 111.1944617 0.07373341 123.64165074 0.0787577 C149.25419169 0.08922339 174.86672382 0.10682393 200.47925705 0.12908131 C202.01093071 3.19242864 201.62655969 6.39869351 201.62452072 9.75994068 C201.62787933 10.54705937 201.63123794 11.33417805 201.63469833 12.14514881 C201.64421955 14.75439223 201.64615191 17.36357159 201.6472258 19.97283131 C201.65043713 21.78122188 201.6538011 23.58961219 201.65731186 25.39800221 C201.66330575 29.19101778 201.66515145 32.98401055 201.66455978 36.77703053 C201.66445804 41.64647273 201.67812099 46.5157695 201.69533199 51.3851772 C201.70642808 55.12027879 201.70847974 58.85534492 201.70795006 62.59046131 C201.70913338 64.38627331 201.71357473 66.18208613 201.72128242 67.97788197 C201.73103597 70.48476693 201.728223 72.99133227 201.72217697 75.49822193 C201.72779648 76.24529911 201.73341598 76.99237629 201.73920578 77.76209217 C201.70757395 82.90076441 201.70757395 82.90076441 199.47925705 85.12908131 C196.65894455 85.32439381 196.65894455 85.32439381 193.35425705 85.25408131 C192.25855392 85.23603443 191.1628508 85.21798756 190.03394455 85.19939381 C189.19089767 85.17619068 188.3478508 85.15298756 187.47925705 85.12908131 C187.47925705 85.78908131 187.47925705 86.44908131 187.47925705 87.12908131 C178.89925705 87.12908131 170.31925705 87.12908131 161.47925705 87.12908131 C161.50246017 89.54865162 161.5256633 91.96822193 161.54956955 94.46111256 C161.56516666 96.80428756 161.57731105 99.14745678 161.58912033 101.49065357 C161.59917847 103.11926063 161.61282663 104.74784963 161.63013595 106.37639576 C161.65439279 108.71718003 161.66574188 111.05772555 161.67456955 113.39861256 C161.68489212 114.1268372 161.69521469 114.85506184 161.70585006 115.60535389 C161.70667954 119.341832 161.60809 120.93583187 159.47925705 124.12908131 C157.01831955 124.57048756 157.01831955 124.57048756 154.10425705 124.69158131 C150.21618383 124.789177 150.21618383 124.789177 146.66138595 126.13616139 C143.91412752 127.38622852 141.85034458 127.3564333 138.83863205 127.32439381 C137.87409103 127.31939869 136.90955002 127.31440357 135.91578048 127.30925709 C134.09095138 127.28194508 134.09095138 127.28194508 132.22925705 127.25408131 C128.35175705 127.21283131 124.47425705 127.17158131 120.47925705 127.12908131 C120.47925705 138.67908131 120.47925705 150.22908131 120.47925705 162.12908131 C111.01600935 165.91438039 101.89738062 166.41369211 91.79175705 166.25408131 C88.05863205 166.21283131 84.32550705 166.17158131 80.47925705 166.12908131 C80.47925705 175.69908131 80.47925705 185.26908131 80.47925705 195.12908131 C85.71881271 195.12122608 85.71881271 195.12122608 91.06421798 195.11321217 C102.59133325 195.09665957 114.11845016 195.08555247 125.64557403 195.07726914 C132.63603964 195.07211233 139.62649398 195.06508133 146.61695236 195.05364186 C153.36018158 195.04261221 160.10339668 195.03680063 166.84663528 195.03420407 C169.42229532 195.03235307 171.9979547 195.02873868 174.57360977 195.02335125 C178.17466005 195.01611703 181.77566164 195.01509139 185.37671798 195.01555592 C186.44702255 195.01196064 187.51732712 195.00836537 188.62006515 195.00466114 C189.60160568 195.00603581 190.58314621 195.00741047 191.59443039 195.00882679 C192.4461671 195.007905 193.29790382 195.00698321 194.17545074 195.00603348 C196.4387651 195.12691861 198.34048349 195.37751068 200.47925705 196.12908131 C201.61417984 198.39892689 201.61146208 199.65963231 201.62452072 202.17986256 C201.63090057 203.0141277 201.63728042 203.84839283 201.6438536 204.70793873 C201.64552284 206.06109181 201.64552284 206.06109181 201.6472258 207.44158131 C201.6505542 208.36624195 201.6538826 209.2909026 201.65731186 210.24358326 C201.66237926 212.20052806 201.66472024 214.15748152 201.66455978 216.11443287 C201.66674814 219.11685525 201.6849109 222.1189114 201.70386642 225.12126881 C201.70679994 227.01970505 201.70878501 228.91814304 201.7097258 230.81658131 C201.71691131 231.71868336 201.72409683 232.62078541 201.73150009 233.55022389 C201.72842346 234.38448902 201.72534683 235.21875416 201.72217697 236.07830006 C201.72360199 236.81395191 201.72502701 237.54960377 201.72649521 238.30754811 C201.47925705 240.12908131 201.47925705 240.12908131 199.47925705 242.12908131 C196.6941008 242.50798756 196.6941008 242.50798756 193.41675705 242.69158131 C189.63102478 242.58790072 189.63102478 242.58790072 186.47925705 244.12908131 C183.85360515 244.23132409 181.25410691 244.26794566 178.62783188 244.26279408 C177.37909991 244.26619241 177.37909991 244.26619241 176.10514104 244.2696594 C173.29371605 244.2760292 170.48233889 244.27516814 167.67090744 244.27434498 C165.66417767 244.27733461 163.65744848 244.28073668 161.65072006 244.28452259 C156.18387412 244.2933866 150.71704382 244.29570171 145.25019139 244.29633838 C140.69472135 244.29728543 136.139255 244.30096136 131.58378637 244.30451047 C120.84101495 244.31266411 110.09825191 244.31509388 99.35547775 244.31438404 C88.25432478 244.31378296 77.15322036 244.32433886 66.05207968 244.34012771 C56.53787963 244.35317991 47.02369549 244.35856892 37.50948656 244.35792863 C31.81968043 244.35767297 26.12991741 244.36056174 20.44012016 244.37110668 C15.09107734 244.38074878 9.7421192 244.38089374 4.3930735 244.37359005 C2.42497901 244.37253935 0.45687936 244.37493559 -1.51120621 244.38095051 C-4.18835024 244.38860528 -6.86519705 244.38406929 -9.54233414 244.37631947 C-10.32957979 244.38146303 -11.11682544 244.38660659 -11.92792702 244.39190602 C-17.29247174 244.35735252 -17.29247174 244.35735252 -19.52074295 242.12908131 C-19.76798111 240.26285511 -19.76798111 240.26285511 -19.76366287 237.97063404 C-19.7667395 237.11312046 -19.76981613 236.25560688 -19.77298599 235.37210804 C-19.76580048 234.44499516 -19.75861496 233.51788227 -19.7512117 232.56267506 C-19.75075348 231.6134467 -19.75029526 230.66421833 -19.74982315 229.68622547 C-19.74679934 227.67798828 -19.73890919 225.66975347 -19.7265535 223.66155201 C-19.70829734 220.57577482 -19.70604377 217.49029748 -19.70628983 214.40447193 C-19.70137478 212.4572037 -19.69554652 210.5099375 -19.6887117 208.56267506 C-19.68759888 207.63353794 -19.68648606 206.70440083 -19.68533951 205.74710804 C-19.67895966 204.89274662 -19.67257981 204.0383852 -19.66600662 203.15813404 C-19.66219483 202.40249668 -19.65838303 201.64685932 -19.65445572 200.86832386 C-19.52074295 199.12908131 -19.52074295 199.12908131 -18.52074295 198.12908131 C-15.51714755 197.84280822 -12.51334189 197.68042376 -9.5012117 197.50798756 C-6.61173508 197.32528809 -6.61173508 197.32528809 -4.67333084 196.1176067 C-2.00082186 194.89031977 -0.03245188 194.90117343 2.90113205 194.93376881 C4.43833908 194.94343678 4.43833908 194.94343678 6.0066008 194.95330006 C7.60181564 194.97843678 7.60181564 194.97843678 9.22925705 195.00408131 C10.30820236 195.01310475 11.38714767 195.02212818 12.4987883 195.03142506 C15.15916982 195.05496826 17.81910041 195.08785332 20.47925705 195.12908131 C20.47402023 194.07406422 20.46878341 193.01904713 20.46338791 191.93205982 C20.44533804 188.03151501 20.4338251 184.13097391 20.42432541 180.23039967 C20.41928515 178.53963815 20.412453 176.84888102 20.40381759 175.15813404 C20.39173848 172.73307424 20.38602582 170.30807187 20.3816008 167.88298756 C20.37643951 167.12256657 20.37127823 166.36214558 20.36596054 165.57868153 C20.36576467 163.7617556 20.41728428 161.94495003 20.47925705 160.12908131 C22.65974124 157.94859711 27.45091484 158.67875136 30.40113205 158.50798756 C33.42902281 158.28032112 33.42902281 158.28032112 35.84034103 157.1176067 C38.69278689 156.04909405 40.74786082 155.89830474 43.7800383 155.93376881 C44.75650314 155.94021412 45.73296798 155.94665943 46.73902267 155.95330006 C48.25012619 155.97843678 48.25012619 155.97843678 49.79175705 156.00408131 C50.81849533 156.01310475 51.84523361 156.02212818 52.90308517 156.03142506 C55.42871604 156.0549193 57.95386514 156.08777 60.47925705 156.12908131 C60.46878341 155.07930104 60.45830978 154.02952076 60.44751877 152.94792897 C60.41137252 149.06043098 60.38837627 145.1729479 60.36939377 141.28533131 C60.35932388 139.60138665 60.34566717 137.91745951 60.32837814 136.2335735 C60.30417279 133.8158863 60.29278408 131.39842988 60.28394455 128.98064381 C60.27362198 128.2253841 60.26329941 127.4701244 60.25266403 126.69197804 C60.25226386 124.83614151 60.35702989 122.98088851 60.47925705 121.12908131 C63.1562668 118.45207155 64.81363904 118.77542701 68.54175705 118.56658131 C72.32748931 118.6702619 72.32748931 118.6702619 75.47925705 117.12908131 C77.33295316 117.04170486 79.18993245 117.02209978 81.0456633 117.03142506 C82.17037033 117.03464772 83.29507736 117.03787037 84.45386642 117.04119068 C85.63787033 117.04956959 86.82187423 117.0579485 88.04175705 117.06658131 C89.22962814 117.07109303 90.41749923 117.07560475 91.64136642 117.08025318 C94.58737931 117.09208456 97.53329385 117.10856844 100.47925705 117.12908131 C100.4635466 116.11483082 100.44783615 115.10058033 100.43164963 114.05559498 C100.37735386 110.29298044 100.34290854 106.53040053 100.31446213 102.76750904 C100.29937461 101.13886908 100.27890198 99.51026975 100.25293869 97.88176686 C100.21655256 95.54092595 100.19953085 93.20062212 100.1862883 90.85955006 C100.17080444 90.13132542 100.15532058 89.40310078 100.13936752 88.65280873 C100.13769252 83.6226442 100.13769252 83.6226442 101.83106369 81.17571217 C104.22348353 79.65648481 106.29636782 79.6448462 109.10425705 79.50408131 C112.60385606 79.60453856 112.60385606 79.60453856 115.47925705 78.12908131 C117.33295316 78.04170486 119.18993245 78.02209978 121.0456633 78.03142506 C122.56462204 78.0351714 122.56462204 78.0351714 124.11426681 78.03899342 C125.41033859 78.04809742 126.70641037 78.05720143 128.04175705 78.06658131 C132.14613205 78.08720631 136.25050705 78.10783131 140.47925705 78.12908131 C140.47925705 68.22908131 140.47925705 58.32908131 140.47925705 48.12908131 C135.66791183 48.13431813 130.85656662 48.13955494 125.89942306 48.14495045 C110.04561498 48.16148168 94.19180657 48.17260148 78.33799213 48.18089348 C68.7209321 48.18605683 59.10388021 48.19310026 49.48682541 48.20452076 C41.10774536 48.21446643 32.7286712 48.22093445 24.34958541 48.2231698 C19.9100958 48.22447711 15.47062306 48.22756422 11.03113884 48.23481137 C6.85748432 48.24156973 2.68385372 48.24369865 -1.48980576 48.24218899 C-3.02615415 48.2424654 -4.56250329 48.24447161 -6.09884697 48.24828678 C-8.18733913 48.25322118 -10.27573952 48.25208056 -12.36423355 48.24933583 C-13.53583244 48.25025762 -14.70743132 48.25117941 -15.9145332 48.25212914 C-18.52074295 48.12908131 -18.52074295 48.12908131 -19.52074295 47.12908131 C-19.61869607 45.75298249 -19.64872383 44.37194249 -19.65013748 42.99236256 C-19.65328964 42.1147527 -19.65644181 41.23714283 -19.65968949 40.33293873 C-19.65766526 39.37879078 -19.65564102 38.42464283 -19.65355545 37.44158131 C-19.65451218 36.46874195 -19.6554689 35.4959026 -19.65645462 34.49358326 C-19.65713654 32.43230331 -19.65528148 30.37102122 -19.65111405 28.30974537 C-19.64576596 25.14270443 -19.65105867 21.97580531 -19.6574617 18.80876881 C-19.65680092 16.81137266 -19.65551976 14.8139766 -19.65355545 12.81658131 C-19.65557968 11.86243336 -19.65760391 10.90828541 -19.65968949 9.92522389 C-19.65653733 9.04761402 -19.65338516 8.17000416 -19.65013748 7.26580006 C-19.64934189 6.4893816 -19.6485463 5.71296314 -19.6477266 4.91301686 C-19.52074295 3.12908131 -19.52074295 3.12908131 -18.52074295 2.12908131 C-15.42031522 1.80461794 -12.31867046 1.6157369 -9.20824295 1.41033131 C-5.90125858 1.06425155 -3.61049723 0.00999023 0 0 Z " fill="#0A02AF" transform="translate(271.52074295282364,108.8709186911583)"/>
<path d="M0 0 C0.79719955 0.00222061 1.59439911 0.00444122 2.41575623 0.00672913 C3.31661453 0.00680466 4.21747284 0.00688019 5.14562988 0.00695801 C6.12478867 0.01211929 7.10394745 0.01728058 8.11277771 0.02259827 C9.11018478 0.02401321 10.10759186 0.02542816 11.13522339 0.02688599 C14.3348027 0.03250337 17.53431315 0.04505881 20.73387146 0.05775452 C22.89728191 0.06276728 25.06069345 0.06733057 27.22410583 0.07142639 C32.53988471 0.08247845 37.85562317 0.09923348 43.17137146 0.12025452 C44.51001427 4.13618295 44.30204918 7.99499735 44.28489685 12.18153381 C44.28504288 13.1085611 44.2851889 14.03558838 44.28533936 14.9907074 C44.284642 18.05865305 44.27685783 21.1265382 44.26902771 24.19447327 C44.2671629 26.32010871 44.2657393 28.44574459 44.26473999 30.57138062 C44.26091975 36.16914555 44.25109365 41.76688459 44.24003601 47.36463928 C44.2298113 53.07549184 44.22524009 58.78634857 44.22019958 64.49720764 C44.20947096 75.70490315 44.19187813 86.91257263 44.17137146 98.12025452 C57.04137146 97.79025452 69.91137146 97.46025452 83.17137146 97.12025452 C83.50137146 85.57025452 83.83137146 74.02025452 84.17137146 62.12025452 C87.79895858 60.30646096 89.43281522 59.8287801 93.29637146 59.55775452 C96.86935919 59.33976386 96.86935919 59.33976386 100.17137146 58.12025452 C101.98478988 58.03554088 103.80131307 58.01304368 105.61668396 58.02259827 C106.69305115 58.02582092 107.76941833 58.02904358 108.87840271 58.03236389 C110.0063324 58.0407428 111.13426208 58.0491217 112.29637146 58.05775452 C113.43203552 58.06226624 114.56769958 58.06677795 115.73777771 58.07142639 C118.54902784 58.08323837 121.36017376 58.09970945 124.17137146 58.12025452 C124.14780579 56.54558411 124.14780579 56.54558411 124.12376404 54.93910217 C124.06954527 51.05164739 124.03505106 47.16422615 124.00657654 43.27650452 C123.99147143 41.59252812 123.970986 39.90859116 123.9450531 38.2247467 C123.90874425 35.80700458 123.89166299 33.38978159 123.87840271 30.97181702 C123.86291885 30.21655731 123.847435 29.46129761 123.83148193 28.68315125 C123.83079529 26.56019592 123.83079529 26.56019592 124.17137146 23.12025452 C127.46126202 20.92699414 128.93845541 20.79696567 132.79637146 20.55775452 C136.29642456 20.61750323 136.29642456 20.61750323 139.17137146 19.12025452 C140.51151432 19.0224095 141.85671495 18.99227475 143.20042419 18.99085999 C144.05478561 18.98770782 144.90914703 18.98455566 145.78939819 18.98130798 C146.71853531 18.98333221 147.64767242 18.98535645 148.60496521 18.98744202 C150.02737267 18.98600693 150.02737267 18.98600693 151.47851562 18.98454285 C153.48852098 18.98386088 155.49852852 18.98571629 157.50852966 18.98988342 C160.59215736 18.99522556 163.67563899 18.98994202 166.75926208 18.98353577 C168.70783012 18.98419666 170.65639806 18.98547806 172.60496521 18.98744202 C173.99563454 18.98440567 173.99563454 18.98440567 175.41439819 18.98130798 C176.27191177 18.98446014 177.12942535 18.9876123 178.01292419 18.99085999 C178.76935715 18.99165558 179.5257901 18.99245117 180.30514526 18.99327087 C182.17137146 19.12025452 182.17137146 19.12025452 184.17137146 20.12025452 C184.17137146 34.97025452 184.17137146 49.82025452 184.17137146 65.12025452 C173.81577035 67.06192972 165.38696026 68.56184123 155.17137146 68.30775452 C154.09887146 68.29421936 153.02637146 68.2806842 151.92137146 68.26673889 C149.33744984 68.2321328 146.75472593 68.18334997 144.17137146 68.12025452 C144.18708191 69.17003479 144.20279236 70.21981506 144.21897888 71.30140686 C144.27319765 75.18886164 144.30769186 79.07628289 144.33616638 82.96400452 C144.35127149 84.64798092 144.37175692 86.33191787 144.39768982 88.01576233 C144.43399867 90.43350445 144.45107993 92.85072744 144.46434021 95.26869202 C144.47982407 96.02395172 144.49530792 96.77921143 144.51126099 97.55735779 C144.51194763 99.68031311 144.51194763 99.68031311 144.17137146 103.12025452 C140.8814809 105.31351489 139.40428751 105.44354336 135.54637146 105.68275452 C132.04631836 105.62300581 132.04631836 105.62300581 129.17137146 107.12025452 C127.31767535 107.20763097 125.46069605 107.22723605 123.60496521 107.21791077 C122.08600647 107.21416443 122.08600647 107.21416443 120.53636169 107.21034241 C119.24028992 107.2012384 117.94421814 107.1921344 116.60887146 107.18275452 C112.50449646 107.16212952 108.40012146 107.14150452 104.17137146 107.12025452 C104.17137146 117.02025452 104.17137146 126.92025452 104.17137146 137.12025452 C108.37693787 137.10285217 108.37693787 137.10285217 112.66746521 137.08509827 C115.37132148 137.07730818 118.07517652 137.07123115 120.77903748 137.06532288 C122.66380876 137.06028208 124.54857611 137.05344953 126.43333435 137.04481506 C129.13638782 137.03273835 131.83938977 137.02702383 134.54246521 137.02259827 C135.81433937 137.01485634 135.81433937 137.01485634 137.11190796 137.00695801 C139.13208214 137.00676257 141.1521508 137.05819241 143.17137146 137.12025452 C144.17137146 138.12025452 144.17137146 138.12025452 144.28489685 141.72206116 C144.28473771 143.32485308 144.27904209 144.92765012 144.26902771 146.53041077 C144.26690529 147.79346291 144.26690529 147.79346291 144.26473999 149.08203125 C144.25912409 151.78230786 144.24656894 154.48250279 144.23387146 157.18275452 C144.22885851 159.0089252 144.22429525 160.83509717 144.22019958 162.66127014 C144.2091495 167.14762994 144.19187425 171.63392836 144.17137146 176.12025452 C145.93565491 176.11239929 145.93565491 176.11239929 147.73558044 176.10438538 C152.08339177 176.08633789 156.43119976 176.07482344 160.77903748 176.06532288 C162.66380876 176.06028208 164.54857611 176.05344953 166.43333435 176.04481506 C169.13638782 176.03273835 171.83938977 176.02702383 174.54246521 176.02259827 C175.81433937 176.01485634 175.81433937 176.01485634 177.11190796 176.00695801 C179.13208214 176.00676257 181.1521508 176.05819241 183.17137146 176.12025452 C184.17137146 177.12025452 184.17137146 177.12025452 184.29162598 179.67019653 C184.28940536 180.80492905 184.28718475 181.93966156 184.28489685 183.10877991 C184.28482132 184.3900325 184.28474579 185.6712851 184.28466797 186.99136353 C184.27956055 188.40021299 184.27434455 189.80906207 184.26902771 191.21791077 C184.26716348 192.65137686 184.2657396 194.08484359 184.26473999 195.51831055 C184.26091518 199.29785408 184.25108523 203.07735941 184.24003601 206.85688782 C184.22982109 210.7109475 184.2252422 214.56501333 184.22019958 218.41908264 C184.20946292 225.98615738 184.19238695 233.5532006 184.17137146 241.12025452 C180.87766225 242.76710912 177.24135114 242.57419618 173.60496521 242.83900452 C171.22593841 242.85860373 171.22593841 242.85860373 170.17137146 244.12025452 C168.80057263 244.21819982 167.42481466 244.24823532 166.05052185 244.24964905 C165.17613968 244.25280121 164.30175751 244.25595337 163.40087891 244.25920105 C161.97436256 244.2561647 161.97436256 244.2561647 160.51902771 244.25306702 C159.54856003 244.25402374 158.57809235 244.25498047 157.57821655 244.25596619 C155.52113277 244.25664816 153.46404684 244.25479266 151.40696716 244.25062561 C148.25091224 244.24528336 145.09500001 244.25056704 141.93894958 244.25697327 C139.94480864 244.25631237 137.95066779 244.25503098 135.95652771 244.25306702 C135.00754105 244.25509125 134.05855438 244.25711548 133.08081055 244.25920105 C131.76450905 244.25447281 131.76450905 244.25447281 130.4216156 244.24964905 C129.26031883 244.24845566 129.26031883 244.24845566 128.07556152 244.24723816 C126.17137146 244.12025452 126.17137146 244.12025452 124.17137146 243.12025452 C124.17137146 223.98025452 124.17137146 204.84025452 124.17137146 185.12025452 C111.38143351 185.15985857 111.38143351 185.15985857 98.59153748 185.21034241 C96.99445156 185.21326155 95.39736491 185.21581011 93.80027771 185.21791077 C92.54483154 185.22558472 92.54483154 185.22558472 91.26402283 185.2334137 C89.23278881 185.23372376 87.20164675 185.18265639 85.17137146 185.12025452 C84.17137146 184.12025452 84.17137146 184.12025452 84.05784607 180.51844788 C84.05809717 178.91565596 84.06365886 177.31285865 84.07371521 175.71009827 C84.07472229 174.96409363 84.07572937 174.21808899 84.07676697 173.44947815 C84.08201457 170.65222139 84.09597573 167.85498647 84.10887146 165.05775452 C84.12949646 158.80837952 84.15012146 152.55900452 84.17137146 146.12025452 C70.97137146 146.12025452 57.77137146 146.12025452 44.17137146 146.12025452 C44.18708191 148.92179016 44.20279236 151.72332581 44.21897888 154.60975647 C44.26863142 163.85377001 44.30180309 173.09778937 44.32680798 182.34190083 C44.34248093 187.94802196 44.36374901 193.55400677 44.39768982 199.16004944 C44.43022502 204.56761202 44.44821219 209.97504326 44.45600319 215.38269615 C44.4615572 217.44843298 44.47240247 219.51416243 44.48856163 221.57984352 C44.51025821 224.46757817 44.51334164 227.35476627 44.51194763 230.24256897 C44.52273346 231.10140182 44.53351929 231.96023468 44.54463196 232.84509277 C44.51400384 238.68732178 44.51400384 238.68732178 42.81532764 240.83368206 C40.45961985 242.67727667 38.49941909 242.59721255 35.54637146 242.74525452 C32.04677245 242.64479726 32.04677245 242.64479726 29.17137146 244.12025452 C27.78977031 244.21303782 26.40349108 244.23772494 25.01878357 244.23377991 C24.13794601 244.23370438 23.25710846 244.23362885 22.34957886 244.23355103 C21.39229385 244.22838974 20.43500885 244.22322845 19.44871521 244.21791077 C18.47350418 244.21649582 17.49829315 244.21508087 16.49353027 244.21362305 C13.36528003 244.20800584 10.23710023 244.19545044 7.10887146 244.18275452 C4.99363812 244.17774173 2.87840365 244.17317844 0.76316833 244.16908264 C-4.4341215 244.15803083 -9.63136999 244.14127598 -14.82862854 244.12025452 C-17.27319759 239.36576608 -17.10888148 234.95757926 -17.08259583 229.74501038 C-17.08571581 228.79688193 -17.08883579 227.84875349 -17.09205031 226.87189388 C-17.10003157 223.69289889 -17.0937061 220.51409471 -17.0874176 217.33509827 C-17.0901274 215.05678699 -17.09368827 212.77847659 -17.09803772 210.50016785 C-17.10716525 204.31022117 -17.10361593 198.12034108 -17.09727955 191.93039322 C-17.09222147 185.45713876 -17.09691047 178.98389006 -17.10005188 172.51063538 C-17.10392535 160.94263428 -17.097704 149.37466726 -17.08753321 137.8066715 C-17.07859777 127.31906175 -17.08014983 116.83149628 -17.08937073 106.34388733 C-17.10007487 94.1635788 -17.10405719 81.98330502 -17.0981462 69.80299091 C-17.09502566 63.35582732 -17.0946195 56.90869423 -17.10121918 50.46153259 C-17.10698974 44.4008111 -17.10300098 38.34017334 -17.09143066 32.27946091 C-17.08878254 30.05300409 -17.08955176 27.82654025 -17.09395599 25.60008621 C-17.09940676 22.56512802 -17.09258283 19.53043958 -17.08259583 16.49549866 C-17.08705727 15.61077346 -17.09151871 14.72604826 -17.09611535 13.81451321 C-17.06828252 9.46510859 -16.86453436 6.07992612 -14.82862854 2.12025452 C-13.54665588 2.02937561 -13.54665588 2.02937561 -12.23878479 1.93666077 C-10.58169495 1.81097717 -10.58169495 1.81097717 -8.89112854 1.68275452 C-7.7889801 1.60154358 -6.68683167 1.52033264 -5.55128479 1.43666077 C-2.87346475 1.12546504 -2.43785756 0.16031872 0 0 Z " fill="#0A06D9" transform="translate(66.82862854003906,108.87974548339844)"/>
<path d="M0 0 C0.85916016 -0.01224609 1.71832031 -0.02449219 2.60351562 -0.03710938 C3.8497168 -0.04000977 3.8497168 -0.04000977 5.12109375 -0.04296875 C5.87704834 -0.04707764 6.63300293 -0.05118652 7.41186523 -0.05541992 C9.5625 0.1875 9.5625 0.1875 13.5625 2.1875 C13.5625 10.1075 13.5625 18.0275 13.5625 26.1875 C14.5525 26.1875 15.5425 26.1875 16.5625 26.1875 C16.52125 24.90875 16.48 23.63 16.4375 22.3125 C16.3671875 20.1328125 16.3671875 20.1328125 16.5625 18.1875 C18.5625 16.1875 18.5625 16.1875 20.9453125 15.9921875 C21.85023437 16.01539063 22.75515625 16.03859375 23.6875 16.0625 C24.59757812 16.08054687 25.50765625 16.09859375 26.4453125 16.1171875 C27.14398438 16.14039063 27.84265625 16.16359375 28.5625 16.1875 C28.541875 15.094375 28.52125 14.00125 28.5 12.875 C28.5625 9.1875 28.5625 9.1875 29.5625 6.1875 C33.541199 4.70477828 37.80719493 5.00358053 42 5 C42.75087891 4.98775391 43.50175781 4.97550781 44.27539062 4.96289062 C48.42400999 4.9519444 51.87418899 5.04842174 55.5625 7.1875 C56.0575 8.6725 56.0575 8.6725 56.5625 10.1875 C57.2225 10.1875 57.8825 10.1875 58.5625 10.1875 C58.500625 8.90875 58.43875 7.63 58.375 6.3125 C58.26953125 4.1328125 58.26953125 4.1328125 58.5625 2.1875 C62.4146916 -0.38062773 65.59726882 -0.10054485 70.0625 -0.078125 C70.89458984 -0.08003845 71.72667969 -0.0819519 72.58398438 -0.08392334 C74.34245099 -0.08528374 76.1009277 -0.08159738 77.859375 -0.07324219 C80.55231262 -0.06254048 83.24458314 -0.07314221 85.9375 -0.0859375 C87.64583481 -0.08461588 89.3541692 -0.08205343 91.0625 -0.078125 C91.86880859 -0.08217346 92.67511719 -0.08622192 93.50585938 -0.09039307 C97.37724692 -0.0578892 99.26716426 -0.00939049 102.5625 2.1875 C102.97093923 4.89953652 102.69586867 7.4312142 102.5625 10.1875 C103.5525 10.1875 104.5425 10.1875 105.5625 10.1875 C105.67207031 9.54941406 105.78164062 8.91132813 105.89453125 8.25390625 C106.05308594 7.42761719 106.21164063 6.60132813 106.375 5.75 C106.60123047 4.51443359 106.60123047 4.51443359 106.83203125 3.25390625 C107.07308594 2.57199219 107.31414062 1.89007813 107.5625 1.1875 C111.72365468 -0.19955156 115.64215762 0.00325455 120 0 C121.28874023 -0.01836914 121.28874023 -0.01836914 122.60351562 -0.03710938 C123.43431641 -0.03904297 124.26511719 -0.04097656 125.12109375 -0.04296875 C125.87704834 -0.04707764 126.63300293 -0.05118652 127.41186523 -0.05541992 C129.5625 0.1875 129.5625 0.1875 133.5625 2.1875 C133.5625 10.1075 133.5625 18.0275 133.5625 26.1875 C134.5525 26.1875 135.5425 26.1875 136.5625 26.1875 C136.52125 24.90875 136.48 23.63 136.4375 22.3125 C136.3671875 20.1328125 136.3671875 20.1328125 136.5625 18.1875 C138.5625 16.1875 138.5625 16.1875 140.9453125 15.9921875 C141.85023438 16.01539063 142.75515625 16.03859375 143.6875 16.0625 C144.59757813 16.08054687 145.50765625 16.09859375 146.4453125 16.1171875 C147.14398438 16.14039063 147.84265625 16.16359375 148.5625 16.1875 C148.5315625 14.269375 148.5315625 14.269375 148.5 12.3125 C148.4375 8.4375 148.4375 8.4375 149.5625 6.1875 C153.60836831 4.81894059 157.77581226 5.00360733 162 5 C163.12631836 4.98163086 163.12631836 4.98163086 164.27539062 4.96289062 C168.49897648 4.9517466 171.70553716 5.2475167 175.5625 7.1875 C175.5625 8.1775 175.5625 9.1675 175.5625 10.1875 C176.5525 10.1875 177.5425 10.1875 178.5625 10.1875 C178.500625 8.90875 178.43875 7.63 178.375 6.3125 C178.26953125 4.1328125 178.26953125 4.1328125 178.5625 2.1875 C182.4146916 -0.38062773 185.59726882 -0.10054485 190.0625 -0.078125 C190.89458984 -0.08003845 191.72667969 -0.0819519 192.58398438 -0.08392334 C194.34245099 -0.08528374 196.1009277 -0.08159738 197.859375 -0.07324219 C200.55231262 -0.06254048 203.24458314 -0.07314221 205.9375 -0.0859375 C207.64583481 -0.08461588 209.3541692 -0.08205343 211.0625 -0.078125 C211.86880859 -0.08217346 212.67511719 -0.08622192 213.50585938 -0.09039307 C217.37724692 -0.0578892 219.26716426 -0.00939049 222.5625 2.1875 C223.26302461 4.850563 223.33994818 7.42785737 223.5625 10.1875 C224.2225 10.1875 224.8825 10.1875 225.5625 10.1875 C225.830625 8.90875 226.09875 7.63 226.375 6.3125 C227.13440099 2.69074145 227.26327803 2.38698132 230.5625 0.1875 C233.5441885 -0.06418228 233.5441885 -0.06418228 237.27427673 -0.06646729 C237.96005454 -0.06958727 238.64583235 -0.07270725 239.3523913 -0.07592177 C241.65550592 -0.08391342 243.95835792 -0.07757367 246.26147461 -0.07128906 C247.91057998 -0.07399844 249.55968415 -0.07755906 251.20878601 -0.08190918 C255.6922351 -0.09104257 260.17559234 -0.08748483 264.65904307 -0.08115101 C269.34704385 -0.07609508 274.03503664 -0.08078141 278.72303772 -0.08392334 C286.59751805 -0.08756453 294.4719609 -0.08276025 302.34643555 -0.07324219 C311.45379007 -0.06236112 320.56105503 -0.06588007 329.66840738 -0.076895 C337.48248625 -0.08596802 345.29653813 -0.08725296 353.11062056 -0.08201766 C357.77988215 -0.07889756 362.44910163 -0.07848966 367.11836052 -0.08509064 C371.50878533 -0.09086354 375.89909459 -0.0868682 380.28950691 -0.07530212 C381.9019972 -0.07265508 383.5144972 -0.07342139 385.12698364 -0.07782745 C387.32603408 -0.08328273 389.52471293 -0.07644916 391.72373962 -0.06646729 C392.95504577 -0.06571323 394.18635191 -0.06495918 395.45497036 -0.06418228 C398.44040408 0.17761132 400.14207156 0.45312383 402.5625 2.1875 C404.08440801 6.75322403 404.39696377 12.60134057 402.5625 17.1875 C400.05752996 18.43998502 398.35396726 18.30124406 395.5546875 18.28515625 C394.56855469 18.28193359 393.58242188 18.27871094 392.56640625 18.27539062 C391.53386719 18.26701172 390.50132812 18.25863281 389.4375 18.25 C387.87708984 18.24323242 387.87708984 18.24323242 386.28515625 18.23632812 C383.71088038 18.22451952 381.13671854 18.20805075 378.5625 18.1875 C378.56694122 18.79693451 378.57138245 19.40636902 378.57595825 20.03427124 C378.62010407 26.36038882 378.65032987 32.68646285 378.67236328 39.01269531 C378.68243924 41.37566911 378.69610029 43.73863039 378.71337891 46.1015625 C378.73755724 49.49221888 378.74896699 52.88271084 378.7578125 56.2734375 C378.76813507 57.33493011 378.77845764 58.39642273 378.78909302 59.49008179 C378.78924408 60.47094757 378.78939514 61.45181335 378.78955078 62.46240234 C378.793992 63.32844086 378.79843323 64.19447937 378.80300903 65.08676147 C378.5625 67.1875 378.5625 67.1875 376.5625 69.1875 C374.23999023 69.43041992 374.23999023 69.43041992 371.37109375 69.41796875 C370.34435547 69.41603516 369.31761719 69.41410156 368.25976562 69.41210938 C367.18404297 69.39986328 366.10832031 69.38761719 365 69.375 C363.92041016 69.37435547 362.84082031 69.37371094 361.72851562 69.37304688 C353.70264598 69.32764598 353.70264598 69.32764598 352.5625 68.1875 C352.46923284 66.62202952 352.44504418 65.05237228 352.44897461 63.48413086 C352.44905014 62.48316879 352.44912567 61.48220673 352.44920349 60.45091248 C352.45436478 59.3623848 352.45952606 58.27385712 352.46484375 57.15234375 C352.46696617 55.4897628 352.46696617 55.4897628 352.46913147 53.79359436 C352.47474967 50.23736931 352.48730525 46.68120617 352.5 43.125 C352.50501266 40.72070403 352.50957597 38.31640708 352.51367188 35.91210938 C352.5238761 30.00386294 352.54344795 24.09575115 352.5625 18.1875 C345.3025 18.1875 338.0425 18.1875 330.5625 18.1875 C330.5625 29.4075 330.5625 40.6275 330.5625 52.1875 C332.2125 52.1875 333.8625 52.1875 335.5625 52.1875 C337.31809942 53.94309942 336.69471919 56.22332442 336.69921875 58.55859375 C336.69535156 59.26113281 336.69148438 59.96367187 336.6875 60.6875 C336.69136719 61.39003906 336.69523437 62.09257812 336.69921875 62.81640625 C336.68911378 68.06088622 336.68911378 68.06088622 335.5625 69.1875 C333.93258445 69.28573093 332.29840014 69.31381949 330.66552734 69.31448364 C329.60541443 69.31730347 328.54530151 69.32012329 327.45306396 69.32302856 C325.69352386 69.31999222 325.69352386 69.31999222 323.8984375 69.31689453 C322.67094788 69.31864685 321.44345825 69.32039917 320.17877197 69.32220459 C316.80281721 69.32586283 313.42692339 69.32498964 310.05097198 69.3218255 C306.52535416 69.31930157 302.99973902 69.32163954 299.47412109 69.32321167 C293.55240407 69.32503327 287.63069951 69.32262732 281.70898438 69.31787109 C274.8533319 69.31242849 267.99770917 69.31419115 261.14205742 69.3196975 C255.26605919 69.32422891 249.39006993 69.32487904 243.51407051 69.32225883 C240.00015907 69.32069621 236.48626163 69.32050188 232.97235107 69.32379532 C229.05707637 69.32720832 225.14183523 69.32248383 221.2265625 69.31689453 C220.05353577 69.31891876 218.88050903 69.32094299 217.67193604 69.32302856 C216.08176666 69.31879883 216.08176666 69.31879883 214.45947266 69.31448364 C213.53252594 69.31410662 212.60557922 69.31372959 211.65054321 69.31334114 C209.5625 69.1875 209.5625 69.1875 208.5625 68.1875 C208.47474395 66.04191173 208.45554781 63.89345579 208.46484375 61.74609375 C208.46806641 60.44091797 208.47128906 59.13574219 208.47460938 57.79101562 C208.48296599 56.4023431 208.49143095 55.01367123 208.5 53.625 C208.50501334 52.23242344 208.50957653 50.83984519 208.51367188 49.44726562 C208.52550558 46.02732549 208.54344169 42.6074075 208.5625 39.1875 C203.6125 39.1875 198.6625 39.1875 193.5625 39.1875 C193.58570313 41.01796875 193.60890625 42.8484375 193.6328125 44.734375 C193.65157061 47.13541259 193.66977076 49.53645459 193.6875 51.9375 C193.70425781 53.1440625 193.72101563 54.350625 193.73828125 55.59375 C193.74472656 56.75390625 193.75117188 57.9140625 193.7578125 59.109375 C193.76828613 60.17768555 193.77875977 61.24599609 193.78955078 62.34667969 C193.56411519 65.16729105 193.02098994 66.79537463 191.5625 69.1875 C185.76010386 69.23684656 179.95782919 69.27319402 174.15527344 69.29736328 C172.18031691 69.30743627 170.20537534 69.32109521 168.23046875 69.33837891 C165.39579582 69.36257039 162.56131962 69.37396991 159.7265625 69.3828125 C158.84006012 69.39313507 157.95355774 69.40345764 157.04019165 69.41409302 C154.87964048 69.4144907 152.71956282 69.31022534 150.5625 69.1875 C148.5625 67.1875 148.5625 67.1875 148.3671875 64.1484375 C148.39039063 62.96507812 148.41359375 61.78171875 148.4375 60.5625 C148.45554688 59.37398438 148.47359375 58.18546875 148.4921875 56.9609375 C148.51539063 56.04570312 148.53859375 55.13046875 148.5625 54.1875 C147.94761719 54.21070313 147.33273438 54.23390625 146.69921875 54.2578125 C145.89097656 54.27585937 145.08273438 54.29390625 144.25 54.3125 C143.44949219 54.33570313 142.64898437 54.35890625 141.82421875 54.3828125 C139.5625 54.1875 139.5625 54.1875 136.5625 52.1875 C136.15406077 49.47546348 136.42913133 46.9437858 136.5625 44.1875 C135.5725 44.1875 134.5825 44.1875 133.5625 44.1875 C133.56773682 44.87376465 133.57297363 45.5600293 133.57836914 46.26708984 C133.59910956 49.36555064 133.61215076 52.46399686 133.625 55.5625 C133.63337891 56.64273438 133.64175781 57.72296875 133.65039062 58.8359375 C133.65361328 59.8671875 133.65683594 60.8984375 133.66015625 61.9609375 C133.66539307 62.91403809 133.67062988 63.86713867 133.67602539 64.84912109 C133.5625 67.1875 133.5625 67.1875 132.5625 69.1875 C126.4569529 69.21214513 120.35143449 69.23033371 114.24584961 69.24243164 C112.16706844 69.24747288 110.08829084 69.25430574 108.00952148 69.26293945 C105.02847414 69.27501422 102.04747351 69.28073024 99.06640625 69.28515625 C97.66328941 69.29289818 97.66328941 69.29289818 96.23182678 69.30079651 C95.37100998 69.30087204 94.51019318 69.30094757 93.62329102 69.30102539 C92.86162125 69.303246 92.09995148 69.30546661 91.31520081 69.30775452 C89.5625 69.1875 89.5625 69.1875 88.5625 68.1875 C88.47474395 66.04191173 88.45554781 63.89345579 88.46484375 61.74609375 C88.46967773 59.78833008 88.46967773 59.78833008 88.47460938 57.79101562 C88.48296599 56.4023431 88.49143095 55.01367123 88.5 53.625 C88.50501334 52.23242344 88.50957653 50.83984519 88.51367188 49.44726562 C88.52550558 46.02732549 88.54344169 42.6074075 88.5625 39.1875 C83.6125 39.1875 78.6625 39.1875 73.5625 39.1875 C73.58570313 41.01796875 73.60890625 42.8484375 73.6328125 44.734375 C73.65157061 47.13541259 73.66977076 49.53645459 73.6875 51.9375 C73.70425781 53.1440625 73.72101563 54.350625 73.73828125 55.59375 C73.74472656 56.75390625 73.75117188 57.9140625 73.7578125 59.109375 C73.76828613 60.17768555 73.77875977 61.24599609 73.78955078 62.34667969 C73.56411519 65.16729105 73.02098994 66.79537463 71.5625 69.1875 C65.76011976 69.26151964 59.95801278 69.31603989 54.15527344 69.35229492 C52.18028987 69.36740462 50.20533996 69.38789328 48.23046875 69.41381836 C45.39574894 69.45010619 42.56147174 69.46720416 39.7265625 69.48046875 C38.84006012 69.49595261 37.95355774 69.51143646 37.04019165 69.52738953 C36.21949188 69.52761612 35.39879211 69.52784271 34.55322266 69.52807617 C33.4673436 69.53806892 33.4673436 69.53806892 32.35952759 69.54826355 C30.5625 69.1875 30.5625 69.1875 28.5625 66.1875 C28.3671875 63.26953125 28.3671875 63.26953125 28.4375 60 C28.45554688 58.91332031 28.47359375 57.82664062 28.4921875 56.70703125 C28.51539063 55.87558594 28.53859375 55.04414063 28.5625 54.1875 C27.64017578 54.23970703 27.64017578 54.23970703 26.69921875 54.29296875 C25.89097656 54.32003906 25.08273438 54.34710938 24.25 54.375 C23.04923828 54.42720703 23.04923828 54.42720703 21.82421875 54.48046875 C19.5625 54.1875 19.5625 54.1875 17.78125 52.90625 C15.83045109 50.15512333 16.37804135 47.44626943 16.5625 44.1875 C15.5725 44.1875 14.5825 44.1875 13.5625 44.1875 C13.57035522 45.21689697 13.57035522 45.21689697 13.57836914 46.26708984 C13.59910956 49.36555064 13.61215076 52.46399686 13.625 55.5625 C13.63337891 56.64273438 13.64175781 57.72296875 13.65039062 58.8359375 C13.65522461 60.3828125 13.65522461 60.3828125 13.66015625 61.9609375 C13.66801147 63.39058838 13.66801147 63.39058838 13.67602539 64.84912109 C13.5625 67.1875 13.5625 67.1875 12.5625 69.1875 C8.58334841 69.21636984 4.60422347 69.23425406 0.625 69.25 C-1.07946289 69.26256836 -1.07946289 69.26256836 -2.81835938 69.27539062 C-3.89794922 69.27861328 -4.97753906 69.28183594 -6.08984375 69.28515625 C-7.59019165 69.29301147 -7.59019165 69.29301147 -9.12084961 69.30102539 C-11.4375 69.1875 -11.4375 69.1875 -12.4375 68.1875 C-12.53167773 66.10130978 -12.55492878 64.01189523 -12.55102539 61.92358398 C-12.55117142 61.26994873 -12.55131744 60.61631348 -12.5514679 59.94287109 C-12.55076883 57.77307872 -12.54297678 55.60337121 -12.53515625 53.43359375 C-12.53329205 51.93286689 -12.53186816 50.43213943 -12.53086853 48.93141174 C-12.52704352 44.97431774 -12.5172134 41.01726022 -12.50616455 37.06018066 C-12.49595006 33.02515151 -12.49137083 28.99011647 -12.48632812 24.95507812 C-12.47559111 17.03253531 -12.4585149 9.11002219 -12.4375 1.1875 C-8.27634532 -0.19955156 -4.35784238 0.00325455 0 0 Z M73.5625 18.1875 C73.5625 19.1775 73.5625 20.1675 73.5625 21.1875 C78.5125 21.1875 83.4625 21.1875 88.5625 21.1875 C88.5625 20.1975 88.5625 19.2075 88.5625 18.1875 C83.6125 18.1875 78.6625 18.1875 73.5625 18.1875 Z M193.5625 18.1875 C193.5625 19.1775 193.5625 20.1675 193.5625 21.1875 C198.5125 21.1875 203.4625 21.1875 208.5625 21.1875 C208.5625 20.1975 208.5625 19.2075 208.5625 18.1875 C203.6125 18.1875 198.6625 18.1875 193.5625 18.1875 Z M234.5625 18.1875 C234.5625 29.4075 234.5625 40.6275 234.5625 52.1875 C236.5425 51.6925 236.5425 51.6925 238.5625 51.1875 C239.0575 46.7325 239.0575 46.7325 239.5625 42.1875 C243.1925 41.8575 246.8225 41.5275 250.5625 41.1875 C250.8925 38.2175 251.2225 35.2475 251.5625 32.1875 C255.1925 31.8575 258.8225 31.5275 262.5625 31.1875 C262.706875 29.888125 262.85125 28.58875 263 27.25 C263.4375 23.3125 263.4375 23.3125 264.5625 22.1875 C266.24433948 21.95462992 267.9337416 21.77485834 269.625 21.625 C271.00365234 21.49931641 271.00365234 21.49931641 272.41015625 21.37109375 C273.12042969 21.31050781 273.83070313 21.24992187 274.5625 21.1875 C274.5625 20.1975 274.5625 19.2075 274.5625 18.1875 C261.3625 18.1875 248.1625 18.1875 234.5625 18.1875 Z M301.5625 18.1875 C300.9025 21.1575 300.2425 24.1275 299.5625 27.1875 C295.9325 27.5175 292.3025 27.8475 288.5625 28.1875 C288.2325 31.1575 287.9025 34.1275 287.5625 37.1875 C284.2625 37.8475 280.9625 38.5075 277.5625 39.1875 C277.2325 42.1575 276.9025 45.1275 276.5625 48.1875 C272.9325 48.5175 269.3025 48.8475 265.5625 49.1875 C265.5625 49.8475 265.5625 50.5075 265.5625 51.1875 C284.8675 51.6825 284.8675 51.6825 304.5625 52.1875 C304.5625 40.9675 304.5625 29.7475 304.5625 18.1875 C303.5725 18.1875 302.5825 18.1875 301.5625 18.1875 Z M42.5625 23.1875 C42.5625 26.4875 42.5625 29.7875 42.5625 33.1875 C38.9325 33.1875 35.3025 33.1875 31.5625 33.1875 C31.5625 34.1775 31.5625 35.1675 31.5625 36.1875 C35.1925 36.5175 38.8225 36.8475 42.5625 37.1875 C42.5625 40.1575 42.5625 43.1275 42.5625 46.1875 C43.8825 46.1875 45.2025 46.1875 46.5625 46.1875 C46.5625 38.5975 46.5625 31.0075 46.5625 23.1875 C45.2425 23.1875 43.9225 23.1875 42.5625 23.1875 Z M162.5625 23.1875 C162.583125 24.30125 162.60375 25.415 162.625 26.5625 C162.5625 30.1875 162.5625 30.1875 161.5625 32.1875 C159.27734375 32.8203125 159.27734375 32.8203125 156.5 33.3125 C155.58089844 33.48007812 154.66179687 33.64765625 153.71484375 33.8203125 C152.64943359 34.00207031 152.64943359 34.00207031 151.5625 34.1875 C151.5625 34.8475 151.5625 35.5075 151.5625 36.1875 C155.1925 36.5175 158.8225 36.8475 162.5625 37.1875 C162.5625 40.4875 162.5625 43.7875 162.5625 47.1875 C163.8825 46.8575 165.2025 46.5275 166.5625 46.1875 C166.5625 38.5975 166.5625 31.0075 166.5625 23.1875 C165.2425 23.1875 163.9225 23.1875 162.5625 23.1875 Z " fill="#060606" transform="translate(68.4375,357.8125)"/>
<path d="M0 0 C13.2 0 26.4 0 40 0 C40.90305166 4.51525828 41.12960455 8.5849809 41.09765625 13.14453125 C41.09664917 13.82753296 41.09564209 14.51053467 41.09460449 15.2142334 C41.08940257 17.7470062 41.07544145 20.27975492 41.0625 22.8125 C41.041875 28.484375 41.02125 34.15625 41 40 C27.47 40 13.94 40 0 40 C0.495 41.98 0.495 41.98 1 44 C1.08378506 46.90959378 1.11617895 49.79421241 1.09765625 52.703125 C1.0962413 53.54091492 1.09482635 54.37870483 1.09336853 55.24188232 C1.08778197 57.91129157 1.07523194 60.5806162 1.0625 63.25 C1.05748326 65.06249879 1.05292066 66.87499889 1.04882812 68.6875 C1.03781694 73.12503248 1.02056155 77.56250191 1 82 C-8.2914013 85.95312551 -17.71317526 86.28253703 -27.6875 86.125 C-33.2871875 86.063125 -33.2871875 86.063125 -39 86 C-39 95.57 -39 105.14 -39 115 C-33.76044434 114.99214478 -33.76044434 114.99214478 -28.41503906 114.98413086 C-16.88792379 114.96757826 -5.36080689 114.95647116 6.16631699 114.94818783 C13.15678259 114.94303102 20.14723693 114.93600002 27.13769531 114.92456055 C33.88092453 114.9135309 40.62413963 114.90771933 47.36737823 114.90512276 C49.94303827 114.90327177 52.51869765 114.89965737 55.09435272 114.89426994 C58.695403 114.88703572 62.29640459 114.88601008 65.89746094 114.88647461 C66.9677655 114.88287933 68.03807007 114.87928406 69.14080811 114.87557983 C70.12234863 114.8769545 71.10388916 114.87832916 72.11517334 114.87974548 C72.96691006 114.87882369 73.81864677 114.8779019 74.6961937 114.87695217 C77 115 77 115 81 116 C81 129.53 81 143.06 81 157 C14.34 157 -52.32 157 -121 157 C-121 143.8 -121 130.6 -121 117 C-107.8 117 -94.6 117 -81 117 C-81 104.13 -81 91.26 -81 78 C-67.8 78 -54.6 78 -41 78 C-41 64.8 -41 51.6 -41 38 C-37.57625 37.979375 -34.1525 37.95875 -30.625 37.9375 C-29.58811035 37.928396 -28.5512207 37.91929199 -27.48291016 37.90991211 C-18.25206487 37.88397807 -9.27884145 38.48450881 0 39 C0 26.13 0 13.26 0 0 Z " fill="#0A02B6" transform="translate(391,189)"/>
<path d="M0 0 C0.79719955 0.00222061 1.59439911 0.00444122 2.41575623 0.00672913 C3.31661453 0.00680466 4.21747284 0.00688019 5.14562988 0.00695801 C6.12478867 0.01211929 7.10394745 0.01728058 8.11277771 0.02259827 C9.11018478 0.02401321 10.10759186 0.02542816 11.13522339 0.02688599 C14.3348027 0.03250337 17.53431315 0.04505881 20.73387146 0.05775452 C22.89728191 0.06276728 25.06069345 0.06733057 27.22410583 0.07142639 C32.53988471 0.08247845 37.85562317 0.09923348 43.17137146 0.12025452 C43.17137146 0.45025452 43.17137146 0.78025452 43.17137146 1.12025452 C29.64137146 1.12025452 16.11137146 1.12025452 2.17137146 1.12025452 C2.17137146 79.00025452 2.17137146 156.88025452 2.17137146 237.12025452 C15.70137146 237.12025452 29.23137146 237.12025452 43.17137146 237.12025452 C42.67637146 188.61025452 42.67637146 188.61025452 42.17137146 139.12025452 C61.97137146 139.12025452 81.77137146 139.12025452 102.17137146 139.12025452 C102.17137146 151.99025452 102.17137146 164.86025452 102.17137146 178.12025452 C115.37137146 178.12025452 128.57137146 178.12025452 142.17137146 178.12025452 C143.47898039 180.73547237 143.29134694 182.65138852 143.28489685 185.57972717 C143.28482132 186.72075897 143.28474579 187.86179077 143.28466797 189.03739929 C143.27950668 190.27388214 143.2743454 191.51036499 143.26902771 192.78431702 C143.26690529 194.67783401 143.26690529 194.67783401 143.26473999 196.60960388 C143.26008224 199.9666375 143.25109554 203.32360352 143.24003601 206.68061829 C143.22980916 210.10580347 143.22518488 213.53099585 143.22019958 216.95619202 C143.2100033 223.67758436 143.19043024 230.398858 143.17137146 237.12025452 C156.70137146 237.12025452 170.23137146 237.12025452 184.17137146 237.12025452 C184.17137146 238.44025452 184.17137146 239.76025452 184.17137146 241.12025452 C180.87766225 242.76710912 177.24135114 242.57419618 173.60496521 242.83900452 C171.22593841 242.85860373 171.22593841 242.85860373 170.17137146 244.12025452 C168.80057263 244.21819982 167.42481466 244.24823532 166.05052185 244.24964905 C165.17613968 244.25280121 164.30175751 244.25595337 163.40087891 244.25920105 C161.97436256 244.2561647 161.97436256 244.2561647 160.51902771 244.25306702 C159.54856003 244.25402374 158.57809235 244.25498047 157.57821655 244.25596619 C155.52113277 244.25664816 153.46404684 244.25479266 151.40696716 244.25062561 C148.25091224 244.24528336 145.09500001 244.25056704 141.93894958 244.25697327 C139.94480864 244.25631237 137.95066779 244.25503098 135.95652771 244.25306702 C135.00754105 244.25509125 134.05855438 244.25711548 133.08081055 244.25920105 C131.76450905 244.25447281 131.76450905 244.25447281 130.4216156 244.24964905 C129.26031883 244.24845566 129.26031883 244.24845566 128.07556152 244.24723816 C126.17137146 244.12025452 126.17137146 244.12025452 124.17137146 243.12025452 C124.17137146 223.98025452 124.17137146 204.84025452 124.17137146 185.12025452 C111.38143351 185.15985857 111.38143351 185.15985857 98.59153748 185.21034241 C96.99445156 185.21326155 95.39736491 185.21581011 93.80027771 185.21791077 C92.54483154 185.22558472 92.54483154 185.22558472 91.26402283 185.2334137 C89.23278881 185.23372376 87.20164675 185.18265639 85.17137146 185.12025452 C84.17137146 184.12025452 84.17137146 184.12025452 84.05784607 180.51844788 C84.05809717 178.91565596 84.06365886 177.31285865 84.07371521 175.71009827 C84.07472229 174.96409363 84.07572937 174.21808899 84.07676697 173.44947815 C84.08201457 170.65222139 84.09597573 167.85498647 84.10887146 165.05775452 C84.12949646 158.80837952 84.15012146 152.55900452 84.17137146 146.12025452 C70.97137146 146.12025452 57.77137146 146.12025452 44.17137146 146.12025452 C44.18708191 148.92179016 44.20279236 151.72332581 44.21897888 154.60975647 C44.26863142 163.85377001 44.30180309 173.09778937 44.32680798 182.34190083 C44.34248093 187.94802196 44.36374901 193.55400677 44.39768982 199.16004944 C44.43022502 204.56761202 44.44821219 209.97504326 44.45600319 215.38269615 C44.4615572 217.44843298 44.47240247 219.51416243 44.48856163 221.57984352 C44.51025821 224.46757817 44.51334164 227.35476627 44.51194763 230.24256897 C44.52273346 231.10140182 44.53351929 231.96023468 44.54463196 232.84509277 C44.51400384 238.68732178 44.51400384 238.68732178 42.81532764 240.83368206 C40.45961985 242.67727667 38.49941909 242.59721255 35.54637146 242.74525452 C32.04677245 242.64479726 32.04677245 242.64479726 29.17137146 244.12025452 C27.78977031 244.21303782 26.40349108 244.23772494 25.01878357 244.23377991 C24.13794601 244.23370438 23.25710846 244.23362885 22.34957886 244.23355103 C21.39229385 244.22838974 20.43500885 244.22322845 19.44871521 244.21791077 C18.47350418 244.21649582 17.49829315 244.21508087 16.49353027 244.21362305 C13.36528003 244.20800584 10.23710023 244.19545044 7.10887146 244.18275452 C4.99363812 244.17774173 2.87840365 244.17317844 0.76316833 244.16908264 C-4.4341215 244.15803083 -9.63136999 244.14127598 -14.82862854 244.12025452 C-17.27319759 239.36576608 -17.10888148 234.95757926 -17.08259583 229.74501038 C-17.08571581 228.79688193 -17.08883579 227.84875349 -17.09205031 226.87189388 C-17.10003157 223.69289889 -17.0937061 220.51409471 -17.0874176 217.33509827 C-17.0901274 215.05678699 -17.09368827 212.77847659 -17.09803772 210.50016785 C-17.10716525 204.31022117 -17.10361593 198.12034108 -17.09727955 191.93039322 C-17.09222147 185.45713876 -17.09691047 178.98389006 -17.10005188 172.51063538 C-17.10392535 160.94263428 -17.097704 149.37466726 -17.08753321 137.8066715 C-17.07859777 127.31906175 -17.08014983 116.83149628 -17.08937073 106.34388733 C-17.10007487 94.1635788 -17.10405719 81.98330502 -17.0981462 69.80299091 C-17.09502566 63.35582732 -17.0946195 56.90869423 -17.10121918 50.46153259 C-17.10698974 44.4008111 -17.10300098 38.34017334 -17.09143066 32.27946091 C-17.08878254 30.05300409 -17.08955176 27.82654025 -17.09395599 25.60008621 C-17.09940676 22.56512802 -17.09258283 19.53043958 -17.08259583 16.49549866 C-17.08705727 15.61077346 -17.09151871 14.72604826 -17.09611535 13.81451321 C-17.06828252 9.46510859 -16.86453436 6.07992612 -14.82862854 2.12025452 C-13.54665588 2.02937561 -13.54665588 2.02937561 -12.23878479 1.93666077 C-10.58169495 1.81097717 -10.58169495 1.81097717 -8.89112854 1.68275452 C-7.7889801 1.60154358 -6.68683167 1.52033264 -5.55128479 1.43666077 C-2.87346475 1.12546504 -2.43785756 0.16031872 0 0 Z " fill="#000002" transform="translate(66.82862854003906,108.87974548339844)"/>
<path d="M0 0 C0.79862251 0.00291284 1.59724501 0.00582568 2.4200682 0.00882679 C3.68316752 0.00754515 3.68316752 0.00754515 4.971784 0.00623763 C7.81552334 0.00458024 10.65920471 0.0101084 13.50293869 0.01555592 C15.53261702 0.01583776 17.56229545 0.01568012 19.59197372 0.01511341 C25.12067266 0.01482532 30.6493501 0.02072391 36.17804402 0.02768737 C41.94897441 0.03391899 47.71990523 0.03452455 53.49083847 0.03571278 C64.42726064 0.03882666 75.36367288 0.04704082 86.30009067 0.05706227 C98.74727595 0.06822164 111.1944617 0.07373341 123.64165074 0.0787577 C149.25419169 0.08922339 174.86672382 0.10682393 200.47925705 0.12908131 C200.47925705 0.45908131 200.47925705 0.78908131 200.47925705 1.12908131 C133.81925705 1.12908131 67.15925705 1.12908131 -1.52074295 1.12908131 C-1.52074295 14.32908131 -1.52074295 27.52908131 -1.52074295 41.12908131 C51.60925705 41.12908131 104.73925705 41.12908131 159.47925705 41.12908131 C159.47925705 53.99908131 159.47925705 66.86908131 159.47925705 80.12908131 C146.27925705 80.12908131 133.07925705 80.12908131 119.47925705 80.12908131 C119.47925705 92.99908131 119.47925705 105.86908131 119.47925705 119.12908131 C98.7848126 119.12908131 98.7848126 119.12908131 88.85425705 118.62908131 C85.43050705 118.46408131 82.00675705 118.29908131 78.47925705 118.12908131 C78.47925705 131.32908131 78.47925705 144.52908131 78.47925705 158.12908131 C65.27925705 158.12908131 52.07925705 158.12908131 38.47925705 158.12908131 C38.47925705 170.99908131 38.47925705 183.86908131 38.47925705 197.12908131 C25.27925705 197.12908131 12.07925705 197.12908131 -1.52074295 197.12908131 C-1.52074295 210.32908131 -1.52074295 223.52908131 -1.52074295 237.12908131 C65.13925705 237.12908131 131.79925705 237.12908131 200.47925705 237.12908131 C200.47925705 224.25908131 200.47925705 211.38908131 200.47925705 198.12908131 C200.80925705 198.12908131 201.13925705 198.12908131 201.47925705 198.12908131 C201.52860103 204.07389312 201.56494986 210.0185864 201.58912033 215.96355397 C201.59919375 217.98701258 201.612853 220.01045659 201.63013595 222.03386647 C201.65432552 224.9380372 201.66572654 227.84201592 201.67456955 230.74626881 C201.68489212 231.65464497 201.69521469 232.56302113 201.70585006 233.49892384 C201.70600113 234.33964436 201.70615219 235.18036488 201.70630783 236.04656178 C201.71074905 236.78824604 201.71519027 237.52993031 201.71976608 238.29408985 C201.47925705 240.12908131 201.47925705 240.12908131 199.47925705 242.12908131 C196.6941008 242.50798756 196.6941008 242.50798756 193.41675705 242.69158131 C189.63102478 242.58790072 189.63102478 242.58790072 186.47925705 244.12908131 C183.85360515 244.23132409 181.25410691 244.26794566 178.62783188 244.26279408 C177.37909991 244.26619241 177.37909991 244.26619241 176.10514104 244.2696594 C173.29371605 244.2760292 170.48233889 244.27516814 167.67090744 244.27434498 C165.66417767 244.27733461 163.65744848 244.28073668 161.65072006 244.28452259 C156.18387412 244.2933866 150.71704382 244.29570171 145.25019139 244.29633838 C140.69472135 244.29728543 136.139255 244.30096136 131.58378637 244.30451047 C120.84101495 244.31266411 110.09825191 244.31509388 99.35547775 244.31438404 C88.25432478 244.31378296 77.15322036 244.32433886 66.05207968 244.34012771 C56.53787963 244.35317991 47.02369549 244.35856892 37.50948656 244.35792863 C31.81968043 244.35767297 26.12991741 244.36056174 20.44012016 244.37110668 C15.09107734 244.38074878 9.7421192 244.38089374 4.3930735 244.37359005 C2.42497901 244.37253935 0.45687936 244.37493559 -1.51120621 244.38095051 C-4.18835024 244.38860528 -6.86519705 244.38406929 -9.54233414 244.37631947 C-10.32957979 244.38146303 -11.11682544 244.38660659 -11.92792702 244.39190602 C-17.29247174 244.35735252 -17.29247174 244.35735252 -19.52074295 242.12908131 C-19.76798111 240.26285511 -19.76798111 240.26285511 -19.76366287 237.97063404 C-19.7667395 237.11312046 -19.76981613 236.25560688 -19.77298599 235.37210804 C-19.76580048 234.44499516 -19.75861496 233.51788227 -19.7512117 232.56267506 C-19.75075348 231.6134467 -19.75029526 230.66421833 -19.74982315 229.68622547 C-19.74679934 227.67798828 -19.73890919 225.66975347 -19.7265535 223.66155201 C-19.70829734 220.57577482 -19.70604377 217.49029748 -19.70628983 214.40447193 C-19.70137478 212.4572037 -19.69554652 210.5099375 -19.6887117 208.56267506 C-19.68759888 207.63353794 -19.68648606 206.70440083 -19.68533951 205.74710804 C-19.67895966 204.89274662 -19.67257981 204.0383852 -19.66600662 203.15813404 C-19.66219483 202.40249668 -19.65838303 201.64685932 -19.65445572 200.86832386 C-19.52074295 199.12908131 -19.52074295 199.12908131 -18.52074295 198.12908131 C-15.51714755 197.84280822 -12.51334189 197.68042376 -9.5012117 197.50798756 C-6.61173508 197.32528809 -6.61173508 197.32528809 -4.67333084 196.1176067 C-2.00082186 194.89031977 -0.03245188 194.90117343 2.90113205 194.93376881 C4.43833908 194.94343678 4.43833908 194.94343678 6.0066008 194.95330006 C7.60181564 194.97843678 7.60181564 194.97843678 9.22925705 195.00408131 C10.30820236 195.01310475 11.38714767 195.02212818 12.4987883 195.03142506 C15.15916982 195.05496826 17.81910041 195.08785332 20.47925705 195.12908131 C20.47402023 194.07406422 20.46878341 193.01904713 20.46338791 191.93205982 C20.44533804 188.03151501 20.4338251 184.13097391 20.42432541 180.23039967 C20.41928515 178.53963815 20.412453 176.84888102 20.40381759 175.15813404 C20.39173848 172.73307424 20.38602582 170.30807187 20.3816008 167.88298756 C20.37643951 167.12256657 20.37127823 166.36214558 20.36596054 165.57868153 C20.36576467 163.7617556 20.41728428 161.94495003 20.47925705 160.12908131 C22.65974124 157.94859711 27.45091484 158.67875136 30.40113205 158.50798756 C33.42902281 158.28032112 33.42902281 158.28032112 35.84034103 157.1176067 C38.69278689 156.04909405 40.74786082 155.89830474 43.7800383 155.93376881 C44.75650314 155.94021412 45.73296798 155.94665943 46.73902267 155.95330006 C48.25012619 155.97843678 48.25012619 155.97843678 49.79175705 156.00408131 C50.81849533 156.01310475 51.84523361 156.02212818 52.90308517 156.03142506 C55.42871604 156.0549193 57.95386514 156.08777 60.47925705 156.12908131 C60.46878341 155.07930104 60.45830978 154.02952076 60.44751877 152.94792897 C60.41137252 149.06043098 60.38837627 145.1729479 60.36939377 141.28533131 C60.35932388 139.60138665 60.34566717 137.91745951 60.32837814 136.2335735 C60.30417279 133.8158863 60.29278408 131.39842988 60.28394455 128.98064381 C60.27362198 128.2253841 60.26329941 127.4701244 60.25266403 126.69197804 C60.25226386 124.83614151 60.35702989 122.98088851 60.47925705 121.12908131 C63.1562668 118.45207155 64.81363904 118.77542701 68.54175705 118.56658131 C72.32748931 118.6702619 72.32748931 118.6702619 75.47925705 117.12908131 C77.33295316 117.04170486 79.18993245 117.02209978 81.0456633 117.03142506 C82.17037033 117.03464772 83.29507736 117.03787037 84.45386642 117.04119068 C85.63787033 117.04956959 86.82187423 117.0579485 88.04175705 117.06658131 C89.22962814 117.07109303 90.41749923 117.07560475 91.64136642 117.08025318 C94.58737931 117.09208456 97.53329385 117.10856844 100.47925705 117.12908131 C100.4635466 116.11483082 100.44783615 115.10058033 100.43164963 114.05559498 C100.37735386 110.29298044 100.34290854 106.53040053 100.31446213 102.76750904 C100.29937461 101.13886908 100.27890198 99.51026975 100.25293869 97.88176686 C100.21655256 95.54092595 100.19953085 93.20062212 100.1862883 90.85955006 C100.17080444 90.13132542 100.15532058 89.40310078 100.13936752 88.65280873 C100.13769252 83.6226442 100.13769252 83.6226442 101.83106369 81.17571217 C104.22348353 79.65648481 106.29636782 79.6448462 109.10425705 79.50408131 C112.60385606 79.60453856 112.60385606 79.60453856 115.47925705 78.12908131 C117.33295316 78.04170486 119.18993245 78.02209978 121.0456633 78.03142506 C122.56462204 78.0351714 122.56462204 78.0351714 124.11426681 78.03899342 C125.41033859 78.04809742 126.70641037 78.05720143 128.04175705 78.06658131 C132.14613205 78.08720631 136.25050705 78.10783131 140.47925705 78.12908131 C140.47925705 68.22908131 140.47925705 58.32908131 140.47925705 48.12908131 C135.66791183 48.13431813 130.85656662 48.13955494 125.89942306 48.14495045 C110.04561498 48.16148168 94.19180657 48.17260148 78.33799213 48.18089348 C68.7209321 48.18605683 59.10388021 48.19310026 49.48682541 48.20452076 C41.10774536 48.21446643 32.7286712 48.22093445 24.34958541 48.2231698 C19.9100958 48.22447711 15.47062306 48.22756422 11.03113884 48.23481137 C6.85748432 48.24156973 2.68385372 48.24369865 -1.48980576 48.24218899 C-3.02615415 48.2424654 -4.56250329 48.24447161 -6.09884697 48.24828678 C-8.18733913 48.25322118 -10.27573952 48.25208056 -12.36423355 48.24933583 C-13.53583244 48.25025762 -14.70743132 48.25117941 -15.9145332 48.25212914 C-18.52074295 48.12908131 -18.52074295 48.12908131 -19.52074295 47.12908131 C-19.61869607 45.75298249 -19.64872383 44.37194249 -19.65013748 42.99236256 C-19.65328964 42.1147527 -19.65644181 41.23714283 -19.65968949 40.33293873 C-19.65766526 39.37879078 -19.65564102 38.42464283 -19.65355545 37.44158131 C-19.65451218 36.46874195 -19.6554689 35.4959026 -19.65645462 34.49358326 C-19.65713654 32.43230331 -19.65528148 30.37102122 -19.65111405 28.30974537 C-19.64576596 25.14270443 -19.65105867 21.97580531 -19.6574617 18.80876881 C-19.65680092 16.81137266 -19.65551976 14.8139766 -19.65355545 12.81658131 C-19.65557968 11.86243336 -19.65760391 10.90828541 -19.65968949 9.92522389 C-19.65653733 9.04761402 -19.65338516 8.17000416 -19.65013748 7.26580006 C-19.64934189 6.4893816 -19.6485463 5.71296314 -19.6477266 4.91301686 C-19.52074295 3.12908131 -19.52074295 3.12908131 -18.52074295 2.12908131 C-15.42031522 1.80461794 -12.31867046 1.6157369 -9.20824295 1.41033131 C-5.90125858 1.06425155 -3.61049723 0.00999023 0 0 Z " fill="#000002" transform="translate(271.52074295282364,108.8709186911583)"/>
<path d="M0 0 C0.85916016 -0.01224609 1.71832031 -0.02449219 2.60351562 -0.03710938 C3.8497168 -0.04000977 3.8497168 -0.04000977 5.12109375 -0.04296875 C5.87704834 -0.04707764 6.63300293 -0.05118652 7.41186523 -0.05541992 C9.5625 0.1875 9.5625 0.1875 13.5625 2.1875 C13.5625 10.1075 13.5625 18.0275 13.5625 26.1875 C14.5525 26.1875 15.5425 26.1875 16.5625 26.1875 C16.52125 24.90875 16.48 23.63 16.4375 22.3125 C16.3671875 20.1328125 16.3671875 20.1328125 16.5625 18.1875 C18.5625 16.1875 18.5625 16.1875 20.9453125 15.9921875 C21.85023437 16.01539063 22.75515625 16.03859375 23.6875 16.0625 C24.59757812 16.08054687 25.50765625 16.09859375 26.4453125 16.1171875 C27.14398438 16.14039063 27.84265625 16.16359375 28.5625 16.1875 C28.541875 15.094375 28.52125 14.00125 28.5 12.875 C28.5625 9.1875 28.5625 9.1875 29.5625 6.1875 C33.541199 4.70477828 37.80719493 5.00358053 42 5 C42.75087891 4.98775391 43.50175781 4.97550781 44.27539062 4.96289062 C48.42400999 4.9519444 51.87418899 5.04842174 55.5625 7.1875 C56.0575 8.6725 56.0575 8.6725 56.5625 10.1875 C57.2225 10.1875 57.8825 10.1875 58.5625 10.1875 C58.500625 8.90875 58.43875 7.63 58.375 6.3125 C58.26953125 4.1328125 58.26953125 4.1328125 58.5625 2.1875 C62.4224267 -0.38578447 65.62309025 -0.10050465 70.09765625 -0.078125 C71.34934853 -0.08099518 71.34934853 -0.08099518 72.62632751 -0.08392334 C74.38899029 -0.0852836 76.15166314 -0.08159823 77.91430664 -0.07324219 C80.61822893 -0.06252683 83.32148884 -0.07314961 86.02539062 -0.0859375 C87.73698064 -0.08461614 89.44857024 -0.08205424 91.16015625 -0.078125 C91.97162613 -0.08217346 92.78309601 -0.08622192 93.61915588 -0.09039307 C99.33257151 -0.04242849 99.33257151 -0.04242849 101.5625 2.1875 C91.6625 2.1875 81.7625 2.1875 71.5625 2.1875 C71.5625 5.8175 71.5625 9.4475 71.5625 13.1875 C67.6025 13.1875 63.6425 13.1875 59.5625 13.1875 C59.5625 30.0175 59.5625 46.8475 59.5625 64.1875 C62.8625 64.1875 66.1625 64.1875 69.5625 64.1875 C71.0475 64.6825 71.0475 64.6825 72.5625 65.1875 C72.0675 67.1675 72.0675 67.1675 71.5625 69.1875 C65.76011976 69.26151964 59.95801278 69.31603989 54.15527344 69.35229492 C52.18028987 69.36740462 50.20533996 69.38789328 48.23046875 69.41381836 C45.39574894 69.45010619 42.56147174 69.46720416 39.7265625 69.48046875 C38.84006012 69.49595261 37.95355774 69.51143646 37.04019165 69.52738953 C36.21949188 69.52761612 35.39879211 69.52784271 34.55322266 69.52807617 C33.4673436 69.53806892 33.4673436 69.53806892 32.35952759 69.54826355 C30.5625 69.1875 30.5625 69.1875 28.5625 66.1875 C28.3671875 63.26953125 28.3671875 63.26953125 28.4375 60 C28.45554688 58.91332031 28.47359375 57.82664062 28.4921875 56.70703125 C28.51539063 55.87558594 28.53859375 55.04414063 28.5625 54.1875 C27.64017578 54.23970703 27.64017578 54.23970703 26.69921875 54.29296875 C25.89097656 54.32003906 25.08273438 54.34710938 24.25 54.375 C23.04923828 54.42720703 23.04923828 54.42720703 21.82421875 54.48046875 C19.5625 54.1875 19.5625 54.1875 17.78125 52.90625 C15.83045109 50.15512333 16.37804135 47.44626943 16.5625 44.1875 C15.5725 44.1875 14.5825 44.1875 13.5625 44.1875 C13.57035522 45.21689697 13.57035522 45.21689697 13.57836914 46.26708984 C13.59910956 49.36555064 13.61215076 52.46399686 13.625 55.5625 C13.63337891 56.64273438 13.64175781 57.72296875 13.65039062 58.8359375 C13.65522461 60.3828125 13.65522461 60.3828125 13.66015625 61.9609375 C13.66801147 63.39058838 13.66801147 63.39058838 13.67602539 64.84912109 C13.5625 67.1875 13.5625 67.1875 12.5625 69.1875 C8.58334841 69.21636984 4.60422347 69.23425406 0.625 69.25 C-1.07946289 69.26256836 -1.07946289 69.26256836 -2.81835938 69.27539062 C-3.89794922 69.27861328 -4.97753906 69.28183594 -6.08984375 69.28515625 C-7.59019165 69.29301147 -7.59019165 69.29301147 -9.12084961 69.30102539 C-11.4375 69.1875 -11.4375 69.1875 -12.4375 68.1875 C-12.53167773 66.10130978 -12.55492878 64.01189523 -12.55102539 61.92358398 C-12.55117142 61.26994873 -12.55131744 60.61631348 -12.5514679 59.94287109 C-12.55076883 57.77307872 -12.54297678 55.60337121 -12.53515625 53.43359375 C-12.53329205 51.93286689 -12.53186816 50.43213943 -12.53086853 48.93141174 C-12.52704352 44.97431774 -12.5172134 41.01726022 -12.50616455 37.06018066 C-12.49595006 33.02515151 -12.49137083 28.99011647 -12.48632812 24.95507812 C-12.47559111 17.03253531 -12.4585149 9.11002219 -12.4375 1.1875 C-8.27634532 -0.19955156 -4.35784238 0.00325455 0 0 Z M42.5625 23.1875 C42.5625 26.4875 42.5625 29.7875 42.5625 33.1875 C38.9325 33.1875 35.3025 33.1875 31.5625 33.1875 C31.5625 34.1775 31.5625 35.1675 31.5625 36.1875 C35.1925 36.5175 38.8225 36.8475 42.5625 37.1875 C42.5625 40.1575 42.5625 43.1275 42.5625 46.1875 C43.8825 46.1875 45.2025 46.1875 46.5625 46.1875 C46.5625 38.5975 46.5625 31.0075 46.5625 23.1875 C45.2425 23.1875 43.9225 23.1875 42.5625 23.1875 Z " fill="#A8A8A8" transform="translate(68.4375,357.8125)"/>
<path d="M0 0 C0.33 0 0.66 0 1 0 C1 31.35 1 62.7 1 95 C13.87 94.67 26.74 94.34 40 94 C40.33 82.45 40.66 70.9 41 59 C44.62758712 57.18620644 46.26144376 56.70852559 50.125 56.4375 C53.69798773 56.21950935 53.69798773 56.21950935 57 55 C58.81341842 54.91528636 60.62994161 54.89278917 62.4453125 54.90234375 C63.52167969 54.90556641 64.59804687 54.90878906 65.70703125 54.91210938 C66.83496094 54.92048828 67.96289062 54.92886719 69.125 54.9375 C70.82849609 54.94426758 70.82849609 54.94426758 72.56640625 54.95117188 C75.37765638 54.96298385 78.1888023 54.97945493 81 55 C80.98428955 53.95021973 80.9685791 52.90043945 80.95239258 51.81884766 C80.89817381 47.93139288 80.8636796 44.04397163 80.83520508 40.15625 C80.82009997 38.4722736 80.79961454 36.78833665 80.77368164 35.10449219 C80.73737279 32.68675007 80.72029153 30.26952708 80.70703125 27.8515625 C80.69154739 27.0963028 80.67606354 26.34104309 80.66011047 25.56289673 C80.65942383 23.43994141 80.65942383 23.43994141 81 20 C84.28989056 17.80673963 85.76708395 17.67671115 89.625 17.4375 C93.1250531 17.49724871 93.1250531 17.49724871 96 16 C97.34014286 15.90215498 98.68534349 15.87202023 100.02905273 15.87060547 C100.88341415 15.86745331 101.73777557 15.86430115 102.61802673 15.86105347 C103.54716385 15.8630777 104.47630096 15.86510193 105.43359375 15.8671875 C106.38186539 15.86623077 107.33013702 15.86527405 108.30714417 15.86428833 C110.31714952 15.86360637 112.32715706 15.86546177 114.3371582 15.86962891 C117.4207859 15.87497104 120.50426753 15.8696875 123.58789062 15.86328125 C125.53645866 15.86394214 127.4850266 15.86522354 129.43359375 15.8671875 C130.82426308 15.86415115 130.82426308 15.86415115 132.24302673 15.86105347 C133.10054031 15.86420563 133.95805389 15.86735779 134.84155273 15.87060547 C135.59798569 15.87140106 136.35441864 15.87219666 137.1337738 15.87301636 C139 16 139 16 141 17 C141 31.85 141 46.7 141 62 C130.64439889 63.94167521 122.2155888 65.44158671 112 65.1875 C110.9275 65.17396484 109.855 65.16042969 108.75 65.14648438 C106.16607838 65.11187828 103.58335447 65.06309546 101 65 C99.5393715 62.35261084 99 61.10551666 99 58 C97.68515625 58.01740234 97.68515625 58.01740234 96.34375 58.03515625 C83.87095682 58.12388547 71.46069274 57.56639512 59 57 C59 69.87 59 82.74 59 96 C39.53 96 20.06 96 0 96 C0 64.32 0 32.64 0 0 Z " fill="#0A03B4" transform="translate(110,112)"/>
<path d="M0 0 C0.33 0 0.66 0 1 0 C1 12.54 1 25.08 1 38 C14.2 38 27.4 38 41 38 C41 26.12 41 14.24 41 2 C41.33 2 41.66 2 42 2 C42 13.55 42 25.1 42 37 C46.20556641 36.98259766 46.20556641 36.98259766 50.49609375 36.96484375 C53.19995002 36.95705367 55.90380506 36.95097663 58.60766602 36.94506836 C60.4924373 36.94002756 62.37720465 36.93319502 64.26196289 36.92456055 C66.96501636 36.91248383 69.66801831 36.90676932 72.37109375 36.90234375 C73.21900986 36.89718246 74.06692596 36.89202118 74.9405365 36.88670349 C76.96071068 36.88650805 78.98077934 36.93793789 81 37 C82 38 82 38 82.12025452 40.39808655 C82.11803391 41.46175949 82.11581329 42.52543243 82.11352539 43.62133789 C82.11341209 45.42309227 82.11341209 45.42309227 82.11329651 47.26124573 C82.10813522 48.5685112 82.10297394 49.87577667 82.09765625 51.22265625 C82.09579198 52.56644132 82.09436812 53.91022707 82.09336853 55.25401306 C82.08954402 58.79682277 82.07971432 62.3395917 82.06866455 65.88238525 C82.05844899 69.49515216 82.0538159 73.10792584 82.04882812 76.72070312 C82.03862218 83.81383813 82.01905051 90.90686107 82 98 C68.47 98 54.94 98 41 98 C40.67 78.53 40.34 59.06 40 39 C26.8 39 13.6 39 0 39 C0 26.13 0 13.26 0 0 Z " fill="#0A02B9" transform="translate(169,248)"/>
<path d="M0 0 C10.23 0 20.46 0 31 0 C31 3.3 31 6.6 31 10 C34.63 10 38.26 10 42 10 C43.03411809 14.13647235 43.14414262 17.87634157 43.1328125 22.09765625 C43.13376923 22.88716171 43.13472595 23.67666718 43.13571167 24.49009705 C43.13639148 26.16193725 43.13455108 27.83378012 43.13037109 29.50561523 C43.12506996 32.02919677 43.13029681 34.55259623 43.13671875 37.07617188 C43.13982616 45.44907499 42.94998334 53.66879688 42 62 C38.04 62 34.08 62 30 62 C30 52.1 30 42.2 30 32 C20.43 32 10.86 32 1 32 C1 41.9 1 51.8 1 62 C-3.29 62 -7.58 62 -12 62 C-12 45.17 -12 28.34 -12 11 C-8.04 11 -4.08 11 0 11 C0 7.37 0 3.74 0 0 Z M2 16 C2 16.99 2 17.98 2 19 C6.95 19 11.9 19 17 19 C17 18.01 17 17.02 17 16 C12.05 16 7.1 16 2 16 Z " fill="#F4F4F4" transform="translate(260,360)"/>
<path d="M0 0 C10.23 0 20.46 0 31 0 C31 3.3 31 6.6 31 10 C34.63 10 38.26 10 42 10 C42 27.16 42 44.32 42 62 C38.04 62 34.08 62 30 62 C30 52.1 30 42.2 30 32 C20.43 32 10.86 32 1 32 C1.33 33.32 1.66 34.64 2 36 C2.08120233 38.0976396 2.10755808 40.19768762 2.09765625 42.296875 C2.09443359 43.50214844 2.09121094 44.70742188 2.08789062 45.94921875 C2.07951172 47.20347656 2.07113281 48.45773437 2.0625 49.75 C2.05798828 51.01972656 2.05347656 52.28945313 2.04882812 53.59765625 C2.03704566 56.73179095 2.01911036 59.86590142 2 63 C-4.93 62.505 -4.93 62.505 -12 62 C-12 45.17 -12 28.34 -12 11 C-8.04 11 -4.08 11 0 11 C0 7.37 0 3.74 0 0 Z M2 16 C2 16.99 2 17.98 2 19 C6.95 19 11.9 19 17 19 C17 18.01 17 17.02 17 16 C12.05 16 7.1 16 2 16 Z " fill="#F1F1F1" transform="translate(140,360)"/>
<path d="M0 0 C0.33 0 0.66 0 1 0 C1 31.35 1 62.7 1 95 C13.87 94.67 26.74 94.34 40 94 C40.33 82.45 40.66 70.9 41 59 C44.62758712 57.18620644 46.26144376 56.70852559 50.125 56.4375 C53.69798773 56.21950935 53.69798773 56.21950935 57 55 C58.81341842 54.91528636 60.62994161 54.89278917 62.4453125 54.90234375 C63.52167969 54.90556641 64.59804687 54.90878906 65.70703125 54.91210938 C66.83496094 54.92048828 67.96289062 54.92886719 69.125 54.9375 C70.82849609 54.94426758 70.82849609 54.94426758 72.56640625 54.95117188 C75.37765638 54.96298385 78.1888023 54.97945493 81 55 C80.98428955 53.95021973 80.9685791 52.90043945 80.95239258 51.81884766 C80.89817381 47.93139288 80.8636796 44.04397163 80.83520508 40.15625 C80.82009997 38.4722736 80.79961454 36.78833665 80.77368164 35.10449219 C80.73737279 32.68675007 80.72029153 30.26952708 80.70703125 27.8515625 C80.69154739 27.0963028 80.67606354 26.34104309 80.66011047 25.56289673 C80.65942383 23.43994141 80.65942383 23.43994141 81 20 C84.28989056 17.80673963 85.76708395 17.67671115 89.625 17.4375 C93.1250531 17.49724871 93.1250531 17.49724871 96 16 C97.33993616 15.89698586 98.68517965 15.86151547 100.02905273 15.85473633 C101.31059486 15.84516655 101.31059486 15.84516655 102.61802673 15.83540344 C103.54716385 15.83429062 104.47630096 15.8331778 105.43359375 15.83203125 C106.85600121 15.82703865 106.85600121 15.82703865 108.30714417 15.82194519 C110.31714389 15.81687181 112.32715208 15.81453699 114.3371582 15.81469727 C117.42087619 15.81251178 120.50423606 15.79436317 123.58789062 15.77539062 C125.5364571 15.77245666 127.48502529 15.77047188 129.43359375 15.76953125 C130.82426308 15.75875298 130.82426308 15.75875298 132.24302673 15.74775696 C133.10054031 15.75083359 133.95805389 15.75391022 134.84155273 15.75708008 C135.59798569 15.75565506 136.35441864 15.75423004 137.1337738 15.75276184 C139 16 139 16 141 18 C127.14 18 113.28 18 99 18 C99 30.87 99 43.74 99 57 C85.8 57 72.6 57 59 57 C59 69.87 59 82.74 59 96 C39.53 96 20.06 96 0 96 C0 64.32 0 32.64 0 0 Z " fill="#000001" transform="translate(110,112)"/>
<path d="M0 0 C13.2 0 26.4 0 40 0 C40.90305166 4.51525828 41.12960455 8.5849809 41.09765625 13.14453125 C41.09664917 13.82753296 41.09564209 14.51053467 41.09460449 15.2142334 C41.08940257 17.7470062 41.07544145 20.27975492 41.0625 22.8125 C41.041875 28.484375 41.02125 34.15625 41 40 C20.705 39.505 20.705 39.505 0 39 C0 26.13 0 13.26 0 0 Z " fill="#0A09F1" transform="translate(391,189)"/>
<path d="M0 0 C13.2 0 26.4 0 40 0 C41.03158698 4.12634792 41.12694542 7.83753685 41.09765625 12.046875 C41.09664917 12.73088379 41.09564209 13.41489258 41.09460449 14.11962891 C41.0893913 16.66310311 41.07543006 19.20655332 41.0625 21.75 C41.041875 27.4425 41.02125 33.135 41 39 C20.705 38.505 20.705 38.505 0 38 C0 25.46 0 12.92 0 0 Z " fill="#0A09F6" transform="translate(351,229)"/>
<path d="M0 0 C-0.33 12.87 -0.66 25.74 -1 39 C-14.2 39 -27.4 39 -41 39 C-41 26.46 -41 13.92 -41 1 C-34.9775 0.835 -28.955 0.67 -22.75 0.5 C-19.90713379 0.42168945 -19.90713379 0.42168945 -17.00683594 0.34179688 C-15.49935013 0.30073818 -13.99186322 0.25971983 -12.484375 0.21875 C-11.70594238 0.1971582 -10.92750977 0.17556641 -10.12548828 0.15332031 C-6.74833761 0.0619872 -3.37870625 0 0 0 Z " fill="#0A07E8" transform="translate(211,247)"/>
<path d="M0 0 C1.25169228 -0.00287018 1.25169228 -0.00287018 2.52867126 -0.00579834 C4.29133404 -0.0071586 6.05400689 -0.00347323 7.81665039 0.00488281 C10.52057268 0.01559817 13.22383259 0.00497539 15.92773438 -0.0078125 C17.63932439 -0.00649114 19.35091399 -0.00392924 21.0625 0 C21.87396988 -0.00404846 22.68543976 -0.00809692 23.52149963 -0.01226807 C29.23491526 0.03569651 29.23491526 0.03569651 31.46484375 2.265625 C21.56484375 2.265625 11.66484375 2.265625 1.46484375 2.265625 C1.46484375 5.895625 1.46484375 9.525625 1.46484375 13.265625 C-2.49515625 13.265625 -6.45515625 13.265625 -10.53515625 13.265625 C-10.53515625 30.095625 -10.53515625 46.925625 -10.53515625 64.265625 C-6.24515625 64.265625 -1.95515625 64.265625 2.46484375 64.265625 C2.46484375 55.685625 2.46484375 47.105625 2.46484375 38.265625 C2.79484375 38.265625 3.12484375 38.265625 3.46484375 38.265625 C3.52288656 42.68223651 3.55845479 47.09874996 3.58984375 51.515625 C3.60660156 52.76988281 3.62335938 54.02414062 3.640625 55.31640625 C3.65029297 57.12431641 3.65029297 57.12431641 3.66015625 58.96875 C3.6758667 60.63405762 3.6758667 60.63405762 3.69189453 62.33300781 C3.46952709 65.20513442 2.9576595 66.83786235 1.46484375 69.265625 C-4.33755239 69.31497156 -10.13982706 69.35131902 -15.94238281 69.37548828 C-17.91733934 69.38556127 -19.89228091 69.39922021 -21.8671875 69.41650391 C-24.70186043 69.44069539 -27.53633663 69.45209491 -30.37109375 69.4609375 C-31.25759613 69.47126007 -32.14409851 69.48158264 -33.0574646 69.49221802 C-35.21801577 69.4926157 -37.37809343 69.38835034 -39.53515625 69.265625 C-41.53515625 67.265625 -41.53515625 67.265625 -41.73046875 64.2265625 C-41.70726562 63.04320312 -41.6840625 61.85984375 -41.66015625 60.640625 C-41.64210937 59.45210938 -41.6240625 58.26359375 -41.60546875 57.0390625 C-41.58226562 56.12382812 -41.5590625 55.20859375 -41.53515625 54.265625 C-42.15003906 54.28882813 -42.76492187 54.31203125 -43.3984375 54.3359375 C-44.20667969 54.35398437 -45.01492187 54.37203125 -45.84765625 54.390625 C-46.64816406 54.41382813 -47.44867188 54.43703125 -48.2734375 54.4609375 C-50.53515625 54.265625 -50.53515625 54.265625 -53.53515625 52.265625 C-53.94359548 49.55358848 -53.66852492 47.0219108 -53.53515625 44.265625 C-54.85515625 43.935625 -56.17515625 43.605625 -57.53515625 43.265625 C-57.53515625 41.945625 -57.53515625 40.625625 -57.53515625 39.265625 C-51.92515625 39.265625 -46.31515625 39.265625 -40.53515625 39.265625 C-40.53515625 42.565625 -40.53515625 45.865625 -40.53515625 49.265625 C-36.57515625 49.265625 -32.61515625 49.265625 -28.53515625 49.265625 C-28.53515625 54.215625 -28.53515625 59.165625 -28.53515625 64.265625 C-24.57515625 64.265625 -20.61515625 64.265625 -16.53515625 64.265625 C-16.53515625 58.985625 -16.53515625 53.705625 -16.53515625 48.265625 C-20.16515625 48.265625 -23.79515625 48.265625 -27.53515625 48.265625 C-27.20515625 47.605625 -26.87515625 46.945625 -26.53515625 46.265625 C-25.54515625 46.265625 -24.55515625 46.265625 -23.53515625 46.265625 C-23.53515625 38.675625 -23.53515625 31.085625 -23.53515625 23.265625 C-24.85515625 23.265625 -26.17515625 23.265625 -27.53515625 23.265625 C-27.53515625 21.615625 -27.53515625 19.965625 -27.53515625 18.265625 C-23.57515625 18.265625 -19.61515625 18.265625 -15.53515625 18.265625 C-15.53515625 15.955625 -15.53515625 13.645625 -15.53515625 11.265625 C-14.21515625 10.935625 -12.89515625 10.605625 -11.53515625 10.265625 C-11.59703125 8.986875 -11.65890625 7.708125 -11.72265625 6.390625 C-11.828125 4.2109375 -11.828125 4.2109375 -11.53515625 2.265625 C-7.67522955 -0.30765947 -4.474566 -0.02237965 0 0 Z " fill="#060606" transform="translate(258.53515625,357.734375)"/>
<path d="M0 0 C1.25169228 -0.00287018 1.25169228 -0.00287018 2.52867126 -0.00579834 C4.29133404 -0.0071586 6.05400689 -0.00347323 7.81665039 0.00488281 C10.52057268 0.01559817 13.22383259 0.00497539 15.92773438 -0.0078125 C17.63932439 -0.00649114 19.35091399 -0.00392924 21.0625 0 C21.87396988 -0.00404846 22.68543976 -0.00809692 23.52149963 -0.01226807 C29.23491526 0.03569651 29.23491526 0.03569651 31.46484375 2.265625 C21.56484375 2.265625 11.66484375 2.265625 1.46484375 2.265625 C1.46484375 5.895625 1.46484375 9.525625 1.46484375 13.265625 C-2.49515625 13.265625 -6.45515625 13.265625 -10.53515625 13.265625 C-10.53515625 30.095625 -10.53515625 46.925625 -10.53515625 64.265625 C-7.23515625 64.265625 -3.93515625 64.265625 -0.53515625 64.265625 C0.45484375 64.595625 1.44484375 64.925625 2.46484375 65.265625 C1.96984375 67.245625 1.96984375 67.245625 1.46484375 69.265625 C-4.33753649 69.33964464 -10.13964347 69.39416489 -15.94238281 69.43041992 C-17.91736638 69.44552962 -19.89231629 69.46601828 -21.8671875 69.49194336 C-24.70190731 69.52823119 -27.53618451 69.54532916 -30.37109375 69.55859375 C-31.70084732 69.58181953 -31.70084732 69.58181953 -33.0574646 69.60551453 C-33.87816437 69.60574112 -34.69886414 69.60596771 -35.54443359 69.60620117 C-36.63031265 69.61619392 -36.63031265 69.61619392 -37.73812866 69.62638855 C-39.53515625 69.265625 -39.53515625 69.265625 -41.53515625 66.265625 C-41.73046875 63.34765625 -41.73046875 63.34765625 -41.66015625 60.078125 C-41.64210938 58.99144531 -41.6240625 57.90476562 -41.60546875 56.78515625 C-41.58226563 55.95371094 -41.5590625 55.12226563 -41.53515625 54.265625 C-42.45748047 54.31783203 -42.45748047 54.31783203 -43.3984375 54.37109375 C-44.20667969 54.39816406 -45.01492187 54.42523438 -45.84765625 54.453125 C-47.04841797 54.50533203 -47.04841797 54.50533203 -48.2734375 54.55859375 C-50.53515625 54.265625 -50.53515625 54.265625 -52.31640625 52.984375 C-54.26720516 50.23324833 -53.7196149 47.52439443 -53.53515625 44.265625 C-54.85515625 43.935625 -56.17515625 43.605625 -57.53515625 43.265625 C-57.53515625 41.945625 -57.53515625 40.625625 -57.53515625 39.265625 C-51.92515625 39.265625 -46.31515625 39.265625 -40.53515625 39.265625 C-40.53515625 42.565625 -40.53515625 45.865625 -40.53515625 49.265625 C-36.57515625 49.265625 -32.61515625 49.265625 -28.53515625 49.265625 C-28.53515625 54.215625 -28.53515625 59.165625 -28.53515625 64.265625 C-24.57515625 64.265625 -20.61515625 64.265625 -16.53515625 64.265625 C-16.53515625 58.985625 -16.53515625 53.705625 -16.53515625 48.265625 C-20.16515625 48.265625 -23.79515625 48.265625 -27.53515625 48.265625 C-27.53515625 47.605625 -27.53515625 46.945625 -27.53515625 46.265625 C-26.21515625 46.265625 -24.89515625 46.265625 -23.53515625 46.265625 C-23.53515625 38.675625 -23.53515625 31.085625 -23.53515625 23.265625 C-24.85515625 23.265625 -26.17515625 23.265625 -27.53515625 23.265625 C-27.53515625 21.615625 -27.53515625 19.965625 -27.53515625 18.265625 C-23.57515625 18.265625 -19.61515625 18.265625 -15.53515625 18.265625 C-15.53515625 15.955625 -15.53515625 13.645625 -15.53515625 11.265625 C-14.21515625 10.935625 -12.89515625 10.605625 -11.53515625 10.265625 C-11.59703125 8.986875 -11.65890625 7.708125 -11.72265625 6.390625 C-11.828125 4.2109375 -11.828125 4.2109375 -11.53515625 2.265625 C-7.67522955 -0.30765947 -4.474566 -0.02237965 0 0 Z " fill="#050505" transform="translate(138.53515625,357.734375)"/>
<path d="M0 0 C19.8 0 39.6 0 60 0 C60 3.63 60 7.26 60 11 C52.08 11 44.16 11 36 11 C36 27.83 36 44.66 36 62 C32.04 62 28.08 62 24 62 C24 45.17 24 28.34 24 11 C16.08 11 8.16 11 0 11 C0 7.37 0 3.74 0 0 Z " fill="#F8F8F8" transform="translate(410,360)"/>
<path d="M0 0 C3.63 0 7.26 0 11 0 C11 8.91 11 17.82 11 27 C16.94 27 22.88 27 29 27 C30.4783226 29.95664519 30.06032783 32.74229737 30 36 C33.96 36 37.92 36 42 36 C42 39.3 42 42.6 42 46 C45.63 46 49.26 46 53 46 C53 51.28 53 56.56 53 62 C49.04 62 45.08 62 41 62 C41 57.05 41 52.1 41 47 C37.04 47 33.08 47 29 47 C29 43.7 29 40.4 29 37 C23.39 37 17.78 37 12 37 C12.33 38.32 12.66 39.64 13 41 C13.07911543 42.65989282 13.10778885 44.3226287 13.09765625 45.984375 C13.09443359 46.91894531 13.09121094 47.85351562 13.08789062 48.81640625 C13.07951172 49.78449219 13.07113281 50.75257813 13.0625 51.75 C13.05798828 52.73355469 13.05347656 53.71710938 13.04882812 54.73046875 C13.037065 57.15367194 13.01913018 59.57684377 13 62 C8.71 62 4.42 62 0 62 C0 41.54 0 21.08 0 0 Z " fill="#F7F7F7" transform="translate(189,360)"/>
<path d="M0 0 C7.92 0 15.84 0 24 0 C24 3.63 24 7.26 24 11 C22.02 11 20.04 11 18 11 C18.33 11.99 18.66 12.98 19 14 C19.08507079 16.7315956 19.11591565 19.43691443 19.09765625 22.16796875 C19.0962413 22.96278152 19.09482635 23.7575943 19.09336853 24.57649231 C19.08777378 27.11353325 19.07522228 29.65048575 19.0625 32.1875 C19.05748432 33.90820185 19.05292153 35.62890508 19.04882812 37.34960938 C19.03780607 41.5664403 19.02054506 45.78320516 19 50 C19.804375 49.979375 20.60875 49.95875 21.4375 49.9375 C24 50 24 50 25 51 C25 54.63 25 58.26 25 62 C16.75 62 8.5 62 0 62 C0 58.7 0 55.4 0 52 C1.98 52 3.96 52 6 52 C6 38.47 6 24.94 6 11 C4.02 11 2.04 11 0 11 C0 7.37 0 3.74 0 0 Z " fill="#FAFAFA" transform="translate(380,360)"/>
<path d="M0 0 C1.30130859 -0.01836914 1.30130859 -0.01836914 2.62890625 -0.03710938 C3.46292969 -0.03904297 4.29695313 -0.04097656 5.15625 -0.04296875 C5.91744141 -0.04707764 6.67863281 -0.05118652 7.46289062 -0.05541992 C9.5 0.1875 9.5 0.1875 12.5 2.1875 C8.54 2.1875 4.58 2.1875 0.5 2.1875 C0.5 22.6475 0.5 43.1075 0.5 64.1875 C3.8 64.1875 7.1 64.1875 10.5 64.1875 C11.985 64.6825 11.985 64.6825 13.5 65.1875 C13.17 66.5075 12.84 67.8275 12.5 69.1875 C8.52084841 69.21636984 4.54172347 69.23425406 0.5625 69.25 C-1.14196289 69.26256836 -1.14196289 69.26256836 -2.88085938 69.27539062 C-3.96044922 69.27861328 -5.04003906 69.28183594 -6.15234375 69.28515625 C-7.65269165 69.29301147 -7.65269165 69.29301147 -9.18334961 69.30102539 C-11.5 69.1875 -11.5 69.1875 -12.5 68.1875 C-12.59417773 66.10130978 -12.61742878 64.01189523 -12.61352539 61.92358398 C-12.61367142 61.26994873 -12.61381744 60.61631348 -12.6139679 59.94287109 C-12.61326883 57.77307872 -12.60547678 55.60337121 -12.59765625 53.43359375 C-12.59579205 51.93286689 -12.59436816 50.43213943 -12.59336853 48.93141174 C-12.58954352 44.97431774 -12.5797134 41.01726022 -12.56866455 37.06018066 C-12.55845006 33.02515151 -12.55387083 28.99011647 -12.54882812 24.95507812 C-12.53809111 17.03253531 -12.5210149 9.11002219 -12.5 1.1875 C-8.32171361 -0.20526213 -4.37575966 0.00325094 0 0 Z " fill="#070707" transform="translate(68.5,357.8125)"/>
<path d="M0 0 C0.33 0 0.66 0 1 0 C1 3.3 1 6.6 1 10 C3.97 10 6.94 10 10 10 C10 10.33 10 10.66 10 11 C7.03 11 4.06 11 1 11 C1 14.3 1 17.6 1 21 C-2.96 21 -6.92 21 -11 21 C-10.67 23.64 -10.34 26.28 -10 29 C1.55 29.33 13.1 29.66 25 30 C25 33.63 25 37.26 25 41 C4.87 41 -15.26 41 -36 41 C-36 37.37 -36 33.74 -36 30 C-32.04 30 -28.08 30 -24 30 C-24 26.7 -24 23.4 -24 20 C-20.04 20 -16.08 20 -12 20 C-12 16.7 -12 13.4 -12 10 C-8.04 10 -4.08 10 0 10 C0 6.7 0 3.4 0 0 Z " fill="#FCFCFC" transform="translate(344,381)"/>
<path d="M0 0 C4.29 0 8.58 0 13 0 C13 8.25 13 16.5 13 25 C18.28 25.66 23.56 26.32 29 27 C29 29.97 29 32.94 29 36 C23.39 36 17.78 36 12 36 C12.33 37.65 12.66 39.3 13 41 C13.07747197 42.76552798 13.10799073 44.53358456 13.09765625 46.30078125 C13.09443359 47.27724609 13.09121094 48.25371094 13.08789062 49.25976562 C13.07951172 50.26716797 13.07113281 51.27457031 13.0625 52.3125 C13.05798828 53.33923828 13.05347656 54.36597656 13.04882812 55.42382812 C13.03708201 57.94924388 13.01914771 60.47462952 13 63 C8.71 62.67 4.42 62.34 0 62 C0 41.54 0 21.08 0 0 Z " fill="#F8F8F8" transform="translate(69,360)"/>
<path d="M0 0 C20.13 0 40.26 0 61 0 C61 6.93 61 13.86 61 21 C57.04 21 53.08 21 49 21 C49 17.7 49 14.4 49 11 C32.83 11 16.66 11 0 11 C0 7.37 0 3.74 0 0 Z " fill="#F4F4F4" transform="translate(308,360)"/>
<path d="M0 0 C0.66 0 1.32 0 2 0 C2 7.92 2 15.84 2 24 C2.99 24 3.98 24 5 24 C4.95875 22.72125 4.9175 21.4425 4.875 20.125 C4.8046875 17.9453125 4.8046875 17.9453125 5 16 C7 14 7 14 9.3828125 13.8046875 C10.28773438 13.82789063 11.19265625 13.85109375 12.125 13.875 C13.49011719 13.90207031 13.49011719 13.90207031 14.8828125 13.9296875 C15.58148438 13.95289063 16.28015625 13.97609375 17 14 C16.979375 12.72125 16.95875 11.4425 16.9375 10.125 C16.875 6.25 16.875 6.25 18 4 C22.04586831 2.63144059 26.21331226 2.81610733 30.4375 2.8125 C31.18837891 2.80025391 31.93925781 2.78800781 32.71289062 2.77539062 C33.81213867 2.77249023 33.81213867 2.77249023 34.93359375 2.76953125 C35.59415771 2.76542236 36.25472168 2.76131348 36.93530273 2.75708008 C39 3 39 3 44 5 C43.67 8.63 43.34 12.26 43 16 C39.04 16 35.08 16 31 16 C31.20625 17.918125 31.4125 19.83625 31.625 21.8125 C32.25 27.625 32.25 27.625 30 31 C27.6171875 31.51171875 27.6171875 31.51171875 24.875 31.6875 C23.50988281 31.78611328 23.50988281 31.78611328 22.1171875 31.88671875 C21.41851562 31.92410156 20.71984375 31.96148437 20 32 C20 32.66 20 33.32 20 34 C20.62648437 33.97679687 21.25296875 33.95359375 21.8984375 33.9296875 C22.71570313 33.91164063 23.53296875 33.89359375 24.375 33.875 C25.18710938 33.85179687 25.99921875 33.82859375 26.8359375 33.8046875 C29 34 29 34 31 36 C27.04 36 23.08 36 19 36 C18.67 33.03 18.34 30.06 18 27 C12.06 27 6.12 27 0 27 C0 18.09 0 9.18 0 0 Z " fill="#B3B3B3" transform="translate(200,360)"/>
<path d="M0 0 C0.33 0 0.66 0 1 0 C1.04627253 10.52652818 1.08184327 21.0530323 1.10362434 31.57964134 C1.1140764 36.46719318 1.12826144 41.35467561 1.15087891 46.2421875 C1.17255671 50.95596629 1.1845579 55.66967818 1.18975449 60.38350296 C1.19345937 62.18490274 1.20069374 63.98629872 1.21146011 65.78767014 C1.22590787 68.30432901 1.22798078 70.82070889 1.22705078 73.33740234 C1.23424133 74.08762161 1.24143188 74.83784088 1.24884033 75.61079407 C1.22810432 80.77189568 1.22810432 80.77189568 -1 83 C-3.8203125 83.1953125 -3.8203125 83.1953125 -7.125 83.125 C-8.22070312 83.10695313 -9.31640625 83.08890625 -10.4453125 83.0703125 C-11.28835938 83.04710937 -12.13140625 83.02390625 -13 83 C-13 83.66 -13 84.32 -13 85 C-21.58 85 -30.16 85 -39 85 C-38.97679687 87.41957031 -38.95359375 89.83914062 -38.9296875 92.33203125 C-38.91409039 94.67520625 -38.901946 97.01837548 -38.89013672 99.36157227 C-38.88007858 100.99017932 -38.86643042 102.61876832 -38.84912109 104.24731445 C-38.82486426 106.58809872 -38.81351517 108.92864424 -38.8046875 111.26953125 C-38.79436493 111.99775589 -38.78404236 112.72598053 -38.77340698 113.47627258 C-38.77257751 117.21275069 -38.87116704 118.80675056 -41 122 C-43.4609375 122.44140625 -43.4609375 122.44140625 -46.375 122.5625 C-50.26307322 122.66009569 -50.26307322 122.66009569 -53.81787109 124.00708008 C-56.56512953 125.25714721 -58.62891247 125.22735199 -61.640625 125.1953125 C-62.71054687 125.18886719 -63.78046875 125.18242187 -64.8828125 125.17578125 C-66.54957031 125.15064453 -66.54957031 125.15064453 -68.25 125.125 C-69.93996094 125.11146484 -69.93996094 125.11146484 -71.6640625 125.09765625 C-74.44292365 125.07410658 -77.2213539 125.0412168 -80 125 C-80.33 122.69 -80.66 120.38 -81 118 C-67.47 118 -53.94 118 -40 118 C-40.33 104.8 -40.66 91.6 -41 78 C-34.791875 77.979375 -28.58375 77.95875 -22.1875 77.9375 C-19.25266724 77.92384399 -19.25266724 77.92384399 -16.25854492 77.90991211 C-14.70752023 77.90699146 -13.15649477 77.90444325 -11.60546875 77.90234375 C-10.80032837 77.89722778 -9.99518799 77.89211182 -9.16564941 77.88684082 C-5.85124657 77.8863214 -3.16706792 77.94431069 0 79 C0 52.93 0 26.86 0 0 Z " fill="#000003" transform="translate(472,111)"/>
<path d="M0 0 C0.75925781 -0.01224609 1.51851562 -0.02449219 2.30078125 -0.03710938 C6.50522625 -0.04815433 8.65171997 0.26335998 12.5 2.1875 C8.21 2.1875 3.92 2.1875 -0.5 2.1875 C-0.5 5.8175 -0.5 9.4475 -0.5 13.1875 C-4.46 13.1875 -8.42 13.1875 -12.5 13.1875 C-12.5 16.4875 -12.5 19.7875 -12.5 23.1875 C-18.11 23.1875 -23.72 23.1875 -29.5 23.1875 C-29.17 22.5275 -28.84 21.8675 -28.5 21.1875 C-27.51 21.1875 -26.52 21.1875 -25.5 21.1875 C-25.561875 19.269375 -25.561875 19.269375 -25.625 17.3125 C-25.6953125 15.1328125 -25.6953125 15.1328125 -25.5 13.1875 C-23.5 11.1875 -23.5 11.1875 -21.1171875 10.9921875 C-20.21226562 11.01539063 -19.30734375 11.03859375 -18.375 11.0625 C-17.00988281 11.08957031 -17.00988281 11.08957031 -15.6171875 11.1171875 C-14.91851562 11.14039063 -14.21984375 11.16359375 -13.5 11.1875 C-13.520625 9.90875 -13.54125 8.63 -13.5625 7.3125 C-13.625 3.4375 -13.625 3.4375 -12.5 1.1875 C-8.43598232 -0.18886336 -4.24338252 0.00360219 0 0 Z " fill="#020202" transform="translate(230.5,362.8125)"/>
<path d="M0 0 C0.75925781 -0.01224609 1.51851562 -0.02449219 2.30078125 -0.03710938 C6.50522625 -0.04815433 8.65171997 0.26335998 12.5 2.1875 C8.21 2.1875 3.92 2.1875 -0.5 2.1875 C-0.5 5.8175 -0.5 9.4475 -0.5 13.1875 C-4.46 13.1875 -8.42 13.1875 -12.5 13.1875 C-12.5 16.4875 -12.5 19.7875 -12.5 23.1875 C-18.11 23.1875 -23.72 23.1875 -29.5 23.1875 C-29.17 22.5275 -28.84 21.8675 -28.5 21.1875 C-27.51 21.1875 -26.52 21.1875 -25.5 21.1875 C-25.561875 19.269375 -25.561875 19.269375 -25.625 17.3125 C-25.6953125 15.1328125 -25.6953125 15.1328125 -25.5 13.1875 C-23.5 11.1875 -23.5 11.1875 -21.1171875 10.9921875 C-20.21226563 11.01539063 -19.30734375 11.03859375 -18.375 11.0625 C-17.00988281 11.08957031 -17.00988281 11.08957031 -15.6171875 11.1171875 C-14.91851562 11.14039063 -14.21984375 11.16359375 -13.5 11.1875 C-13.520625 10.094375 -13.54125 9.00125 -13.5625 7.875 C-13.5 4.1875 -13.5 4.1875 -12.5 1.1875 C-8.50377463 -0.30355664 -4.21165369 0.00357526 0 0 Z " fill="#030303" transform="translate(110.5,362.8125)"/>
<path d="M0 0 C13.53 0 27.06 0 41 0 C40.67 1.32 40.34 2.64 40 4 C36.70629079 5.64685461 33.06997968 5.45394166 29.43359375 5.71875 C27.05456695 5.73834922 27.05456695 5.73834922 26 7 C24.14630389 7.08737645 22.28932459 7.10698153 20.43359375 7.09765625 C19.42095459 7.09515869 18.40831543 7.09266113 17.36499023 7.09008789 C16.06891846 7.08098389 14.77284668 7.07187988 13.4375 7.0625 C9.333125 7.041875 5.22875 7.02125 1 7 C1 16.9 1 26.8 1 37 C13.87 37 26.74 37 40 37 C40 37.33 40 37.66 40 38 C26.8 38 13.6 38 0 38 C0 25.46 0 12.92 0 0 Z " fill="#000004" transform="translate(170,209)"/>
<path d="M0 0 C0.33 0 0.66 0 1 0 C1 3.3 1 6.6 1 10 C4.96 10 8.92 10 13 10 C13 8.02 13 6.04 13 4 C13.33 4 13.66 4 14 4 C14.17700355 8.60209225 14.10814567 10.78370866 12 15 C8.37 15 4.74 15 1 15 C1 17.97 1 20.94 1 24 C-3.21629134 26.10814567 -5.39790775 26.17700355 -10 26 C-9.938125 27.093125 -9.87625 28.18625 -9.8125 29.3125 C-10 33 -10 33 -11.21875 34.71875 C-13.52088476 36.3746715 -14.88218083 36.3094704 -17.6875 36.1875 C-18.89986328 36.14689453 -18.89986328 36.14689453 -20.13671875 36.10546875 C-20.75160156 36.07066406 -21.36648438 36.03585937 -22 36 C-22.33 34.35 -22.66 32.7 -23 31 C-19.04 31 -15.08 31 -11 31 C-11 24.07 -11 17.14 -11 10 C-7.37 10 -3.74 10 0 10 C0 6.7 0 3.4 0 0 Z " fill="#E1E1E1" transform="translate(356,371)"/>
<path d="M0 0 C0 3.3 0 6.6 0 10 C-9.24 10 -18.48 10 -28 10 C-28 7.03 -28 4.06 -28 1 C-24.45843821 0.83105465 -20.91673593 0.66525124 -17.375 0.5 C-16.37597656 0.45230469 -15.37695312 0.40460938 -14.34765625 0.35546875 C-9.5608033 0.13356166 -4.79365172 -0.06544234 0 0 Z " fill="#FDFDFD" transform="translate(169,360)"/>
<path d="M0 0 C9.24 0 18.48 0 28 0 C28 2.97 28 5.94 28 9 C18.76 9 9.52 9 0 9 C0 6.03 0 3.06 0 0 Z " fill="#FEFEFE" transform="translate(261,361)"/>
<path d="M0 0 C13.53 0 27.06 0 41 0 C41 1.32 41 2.64 41 4 C27.63413924 7.30215383 14.70485409 7.33472527 1 7 C0.67 4.69 0.34 2.38 0 0 Z " fill="#000000" transform="translate(210,170)"/>
<path d="M0 0 C13.53 0 27.06 0 41 0 C40.67 1.32 40.34 2.64 40 4 C27.2706246 7.42713953 14.1352351 8.01823528 1 7 C0.67 6.67 0.34 6.34 0 6 C0 4.02 0 2.04 0 0 Z " fill="#000002" transform="translate(351,268)"/>
<path d="M0 0 C0.33 0 0.66 0 1 0 C1 3.3 1 6.6 1 10 C3.97 10 6.94 10 10 10 C10 10.33 10 10.66 10 11 C7.03 11 4.06 11 1 11 C1 14.3 1 17.6 1 21 C-2.96 21 -6.92 21 -11 21 C-10.67 23.64 -10.34 26.28 -10 29 C3.365 29.495 3.365 29.495 17 30 C17 30.33 17 30.66 17 31 C7.43 31 -2.14 31 -12 31 C-12 27.7 -12 24.4 -12 21 C-15.63 21 -19.26 21 -23 21 C-23 24.3 -23 27.6 -23 31 C-26.96 31 -30.92 31 -35 31 C-35 34.3 -35 37.6 -35 41 C-35.33 41 -35.66 41 -36 41 C-36 37.37 -36 33.74 -36 30 C-32.04 30 -28.08 30 -24 30 C-24 26.7 -24 23.4 -24 20 C-20.04 20 -16.08 20 -12 20 C-12 16.7 -12 13.4 -12 10 C-8.04 10 -4.08 10 0 10 C0 6.7 0 3.4 0 0 Z " fill="#9B9B9B" transform="translate(344,381)"/>
<path d="M0 0 C9.9 0 19.8 0 30 0 C30 3.3 30 6.6 30 10 C20.43 10 10.86 10 1 10 C0.67 6.7 0.34 3.4 0 0 Z M2 5 C2 5.99 2 6.98 2 8 C6.95 8 11.9 8 17 8 C17 7.01 17 6.02 17 5 C12.05 5 7.1 5 2 5 Z " fill="#0A0A0A" transform="translate(260,371)"/>
<path d="M0 0 C9.9 0 19.8 0 30 0 C30 3.3 30 6.6 30 10 C20.43 10 10.86 10 1 10 C1 9.34 1 8.68 1 8 C6.28 8 11.56 8 17 8 C17 7.01 17 6.02 17 5 C11.72 5 6.44 5 1 5 C0.67 3.35 0.34 1.7 0 0 Z " fill="#090909" transform="translate(140,371)"/>
<path d="M0 0 C2.85488368 4.28232553 2.38130949 8.52148832 1.625 13.4375 C1 15 1 15 -1 16 C-8.26 16 -15.52 16 -23 16 C-23 31.51 -23 47.02 -23 63 C-27.29 63 -31.58 63 -36 63 C-36 62.67 -36 62.34 -36 62 C-32.04 62 -28.08 62 -24 62 C-24 45.17 -24 28.34 -24 11 C-16.08 11 -8.16 11 0 11 C0 7.37 0 3.74 0 0 Z " fill="#434343" transform="translate(470,360)"/>
<path d="M0 0 C3.63 0 7.26 0 11 0 C11 4.95 11 9.9 11 15 C7.37 15 3.74 15 0 15 C0 10.05 0 5.1 0 0 Z " fill="#FDFDFD" transform="translate(231,407)"/>
<path d="M0 0 C3.63 0 7.26 0 11 0 C11 4.95 11 9.9 11 15 C7.37 15 3.74 15 0 15 C0 10.05 0 5.1 0 0 Z " fill="#FEFEFE" transform="translate(111,407)"/>
<path d="M0 0 C2.10375 0.0309375 2.10375 0.0309375 4.25 0.0625 C3.92 3.6925 3.59 7.3225 3.25 11.0625 C-0.71 11.0625 -4.67 11.0625 -8.75 11.0625 C-8.75 7.7625 -8.75 4.4625 -8.75 1.0625 C-5.48118027 0.24529507 -3.28000931 -0.04823543 0 0 Z " fill="#F5F5F5" transform="translate(119.75,364.9375)"/>
<path d="M0 0 C3.96 0 7.92 0 12 0 C11.67 1.32 11.34 2.64 11 4 C7.52674819 5.1577506 4.63932552 5.06866652 1 5 C1.061875 6.093125 1.12375 7.18625 1.1875 8.3125 C1 12 1 12 -0.21875 13.71875 C-2.52088476 15.3746715 -3.88218083 15.3094704 -6.6875 15.1875 C-7.89986328 15.14689453 -7.89986328 15.14689453 -9.13671875 15.10546875 C-9.75160156 15.07066406 -10.36648438 15.03585937 -11 15 C-11.33 13.35 -11.66 11.7 -12 10 C-8.04 10 -4.08 10 0 10 C0 6.7 0 3.4 0 0 Z " fill="#060606" transform="translate(345,392)"/>
<path d="M0 0 C2.52561648 3.78842473 2.25391573 6.78533329 2.1953125 11.16796875 C2.1924826 11.96278152 2.18965271 12.7575943 2.18673706 13.57649231 C2.17554705 16.11364838 2.15044491 18.65045072 2.125 21.1875 C2.11496866 22.90819802 2.10584308 24.62890159 2.09765625 26.34960938 C2.07561161 30.56654243 2.04109006 34.78321125 2 39 C2.804375 38.979375 3.60875 38.95875 4.4375 38.9375 C7 39 7 39 8 40 C8.07226502 41.85287502 8.0838122 43.70833878 8.0625 45.5625 C8.05347656 46.57441406 8.04445313 47.58632813 8.03515625 48.62890625 C8.02355469 49.41136719 8.01195312 50.19382812 8 51 C7.34 51 6.68 51 6 51 C6 47.7 6 44.4 6 41 C4.02 41 2.04 41 0 41 C0 27.47 0 13.94 0 0 Z " fill="#C9C9C9" transform="translate(397,371)"/>
<path d="M0 0 C3.63 0 7.26 0 11 0 C11 3.3 11 6.6 11 10 C7.37 10 3.74 10 0 10 C0 6.7 0 3.4 0 0 Z " fill="#FBFBFB" transform="translate(219,376)"/>
<path d="M0 0 C3.63 0 7.26 0 11 0 C11 3.3 11 6.6 11 10 C7.37 10 3.74 10 0 10 C0 6.7 0 3.4 0 0 Z " fill="#FBFBFB" transform="translate(99,376)"/>
<path d="M0 0 C3.63 0 7.26 0 11 0 C11 3.3 11 6.6 11 10 C7.37 10 3.74 10 0 10 C0 6.7 0 3.4 0 0 Z " fill="#FCFCFC" transform="translate(231,366)"/>
<path d="M0 0 C0 3.3 0 6.6 0 10 C-3.63 10 -7.26 10 -11 10 C-11 7.03 -11 4.06 -11 1 C-7.1273408 0.0318352 -3.96388638 -0.07622858 0 0 Z " fill="#FCFCFC" transform="translate(110,396)"/>
<path d="M0 0 C3.63 0 7.26 0 11 0 C11.33 3.3 11.66 6.6 12 10 C8.04 9.67 4.08 9.34 0 9 C0 6.03 0 3.06 0 0 Z " fill="#FCFCFC" transform="translate(333,392)"/>
<path d="M0 0 C0 3.3 0 6.6 0 10 C-3.63 10 -7.26 10 -11 10 C-11 7.03 -11 4.06 -11 1 C-9.55625 0.835 -8.1125 0.67 -6.625 0.5 C-5.81289062 0.4071875 -5.00078125 0.314375 -4.1640625 0.21875 C-2 0 -2 0 0 0 Z " fill="#FEFEFE" transform="translate(230,396)"/>
<path d="M0 0 C0.33 0 0.66 0 1 0 C1 12.87 1 25.74 1 39 C13.21 39 25.42 39 38 39 C38 39.33 38 39.66 38 40 C25.79 40 13.58 40 1 40 C0.67 40.99 0.34 41.98 0 43 C0 42.01 0 41.02 0 40 C-5.28 40 -10.56 40 -16 40 C-16 39.67 -16 39.34 -16 39 C-10.72 39 -5.44 39 0 39 C0 26.13 0 13.26 0 0 Z " fill="#05026A" transform="translate(209,130)"/>
<path d="M0 0 C7.92 0 15.84 0 24 0 C24 0.99 24 1.98 24 3 C21.49502996 4.25248502 19.79146726 4.11374406 16.9921875 4.09765625 C16.00605469 4.09443359 15.01992188 4.09121094 14.00390625 4.08789062 C12.97136719 4.07951172 11.93882812 4.07113281 10.875 4.0625 C9.31458984 4.05573242 9.31458984 4.05573242 7.72265625 4.04882812 C5.14838038 4.03701952 2.57421854 4.02055075 0 4 C0 2.68 0 1.36 0 0 Z " fill="#000000" transform="translate(447,372)"/>
<path d="M0 0 C4.29 0 8.58 0 13 0 C12.67 1.32 12.34 2.64 12 4 C10.93458984 4.07347656 10.93458984 4.07347656 9.84765625 4.1484375 C8.92855469 4.22320312 8.00945312 4.29796875 7.0625 4.375 C6.14597656 4.44460938 5.22945313 4.51421875 4.28515625 4.5859375 C3.53105469 4.72257812 2.77695313 4.85921875 2 5 C1.67 5.66 1.34 6.32 1 7 C1.62648438 6.97679687 2.25296875 6.95359375 2.8984375 6.9296875 C3.71570313 6.91164063 4.53296875 6.89359375 5.375 6.875 C6.18710938 6.85179687 6.99921875 6.82859375 7.8359375 6.8046875 C10 7 10 7 12 9 C8.04 9 4.08 9 0 9 C0 6.03 0 3.06 0 0 Z " fill="#070707" transform="translate(99,387)"/>
<path d="M0 0 C4.29 0 8.58 0 13 0 C12.34 1.32 11.68 2.64 11 4 C8.6171875 4.609375 8.6171875 4.609375 5.875 4.75 C4.96492187 4.80671875 4.05484375 4.8634375 3.1171875 4.921875 C2.41851562 4.94765625 1.71984375 4.9734375 1 5 C1 5.66 1 6.32 1 7 C1.62648437 6.97679687 2.25296875 6.95359375 2.8984375 6.9296875 C3.71570313 6.91164063 4.53296875 6.89359375 5.375 6.875 C6.18710938 6.85179687 6.99921875 6.82859375 7.8359375 6.8046875 C10 7 10 7 12 9 C8.04 9 4.08 9 0 9 C0 6.03 0 3.06 0 0 Z " fill="#020202" transform="translate(219,387)"/>
<path d="M0 0 C0.33 0 0.66 0 1 0 C1 3.3 1 6.6 1 10 C4.63 10 8.26 10 12 10 C12 10.33 12 10.66 12 11 C8.37 11 4.74 11 1 11 C1 15.95 1 20.9 1 26 C0.67 26 0.34 26 0 26 C0 21.05 0 16.1 0 11 C-3.96 11 -7.92 11 -12 11 C-12 7.7 -12 4.4 -12 1 C-11.67 1 -11.34 1 -11 1 C-11 3.97 -11 6.94 -11 10 C-7.37 10 -3.74 10 0 10 C0 6.7 0 3.4 0 0 Z " fill="#AAAAAA" transform="translate(230,396)"/>
<path d="M0 0 C3.96 0 7.92 0 12 0 C11.67 1.32 11.34 2.64 11 4 C7.37 4 3.74 4 0 4 C0 2.68 0 1.36 0 0 Z " fill="#000000" transform="translate(357,382)"/>
<path d="M0 0 C0.33 0 0.66 0 1 0 C1 3.3 1 6.6 1 10 C3.97 10 6.94 10 10 10 C10 10.33 10 10.66 10 11 C7.03 11 4.06 11 1 11 C0.67 12.32 0.34 13.64 0 15 C0 13.68 0 12.36 0 11 C-2.31 11 -4.62 11 -7 11 C-7 10.67 -7 10.34 -7 10 C-4.69 10 -2.38 10 0 10 C0 6.7 0 3.4 0 0 Z " fill="#A5A5A5" transform="translate(344,381)"/>
</svg>
